999
UVCAD 1.0.1.0
  0
SECTION
  2
HEADER
  9
$ACADVER
  1
AC1015
  9
$HANDSEED
  5
FFFF
  9
$DIMADEC
 70
0
  9
$DIMASZ
 40
2.5
  9
$DIMAUNIT
 70
0
  9
$DIMAZIN
 70
2
  9
$DIMDEC
 70
4
  9
$DIMDLI
 40
5.0
  9
$DIMDSEP
 70
46
  9
$DIMEXE
 40
1.25
  9
$DIMEXO
 40
0.625
  9
$DIMGAP
 40
0.625
  9
$DIMLUNIT
 70
2
  9
$DIMSCALE
 40
1.0
  9
$DIMTSZ
 40
0.0
  9
$DIMTXT
 40
2.5
  9
$DIMZIN
 70
8
  9
$DWGCODEPAGE
  3
ANSI_1252
  9
$INSUNITS
 70
4
  9
$LTSCALE
 40
1.0
  9
$MAXACTVP
 70
64
  9
$MIRRTEXT
 70
0
  9
$PDMODE
 70
0
  9
$PDSIZE
 40
0.0
  0
ENDSEC
  0
SECTION
  2
TABLES
  0
TABLE
  2
VPORT
  5
8
100
AcDbSymbolTable
 70
1
  0
VPORT
  5
30
100
AcDbSymbolTableRecord
100
AcDbViewportTableRecord
  2
*Active
 70
0
 10
0.0
 20
0.0
 11
1.0
 21
1.0
 12
286.3055555555554861
 22
148.5
 13
0.0
 23
0.0
 14
10.0
 24
10.0
 15
10.0
 25
10.0
 16
0.0
 26
0.0
 36
1.0
 17
0.0
 27
0.0
 37
0.0
 40
297.0
 41
1.92798353909465
 42
50.0
 43
0.0
 44
0.0
 50
0.0
 51
0.0
 71
0
 72
100
 73
1
 74
3
 75
1
 76
1
 77
0
 78
0
281
0
 65
1
110
0.0
120
0.0
130
0.0
111
1.0
121
0.0
131
0.0
112
0.0
122
1.0
132
0.0
 79
0
146
0.0
  0
ENDTAB
  0
TABLE
  2
LTYPE
  5
5
100
AcDbSymbolTable
 70
41
  0
LTYPE
  5
16
100
AcDbSymbolTableRecord
100
AcDbLinetypeTableRecord
  2
Continuous
 70
0
  3
Solid line
 72
65
 73
0
 40
0.0
  0
LTYPE
  5
31
100
AcDbSymbolTableRecord
100
AcDbLinetypeTableRecord
  2
PHANTOM2
 70
0
  3
Phantom (.5x) ___ _ _ ___ _ _ ___ _ _ ___ _ _
 72
65
 73
6
 40
31.7500000000000036
 49
15.875
 74
0
 49
-3.1749999999999998
 74
0
 49
3.1749999999999998
 74
0
 49
-3.1749999999999998
 74
0
 49
3.1749999999999998
 74
0
 49
-3.1749999999999998
 74
0
  0
LTYPE
  5
32
100
AcDbSymbolTableRecord
100
AcDbLinetypeTableRecord
  2
PHANTOMX2
 70
0
  3
Phantom (2x) ____________    ____    ____   _
 72
65
 73
6
 40
127.0000000000000142
 49
63.5
 74
0
 49
-12.6999999999999993
 74
0
 49
12.6999999999999993
 74
0
 49
-12.6999999999999993
 74
0
 49
12.6999999999999993
 74
0
 49
-12.6999999999999993
 74
0
  0
LTYPE
  5
33
100
AcDbSymbolTableRecord
100
AcDbLinetypeTableRecord
  2
HIDDEN
 70
0
  3
Hidden __ __ __ __ __ __ __ __ __ __ __ __ __ __
 72
65
 73
2
 40
9.5249999999999986
 49
6.3499999999999996
 74
0
 49
-3.1749999999999998
 74
0
  0
LTYPE
  5
34
100
AcDbSymbolTableRecord
100
AcDbLinetypeTableRecord
  2
HIDDEN2
 70
0
  3
Hidden (.5x) _ _ _ _ _ _ _ _ _ _ _ _ _ _ _ _ _ 
 72
65
 73
2
 40
4.7624999999999993
 49
3.1749999999999998
 74
0
 49
-1.5874999999999999
 74
0
  0
LTYPE
  5
35
100
AcDbSymbolTableRecord
100
AcDbLinetypeTableRecord
  2
HIDDENX2
 70
0
  3
Hidden (2x) ____ ____ ____ ____ ____ ____ ____ 
 72
65
 73
2
 40
19.0499999999999972
 49
12.6999999999999993
 74
0
 49
-6.3499999999999996
 74
0
  0
LTYPE
  5
36
100
AcDbSymbolTableRecord
100
AcDbLinetypeTableRecord
  2
PHANTOM
 70
0
  3
Phantom ______  __  __  ______  __  __  ______ 
 72
65
 73
6
 40
63.5000000000000071
 49
31.75
 74
0
 49
-6.3499999999999996
 74
0
 49
6.3499999999999996
 74
0
 49
-6.3499999999999996
 74
0
 49
6.3499999999999996
 74
0
 49
-6.3499999999999996
 74
0
  0
LTYPE
  5
37
100
AcDbSymbolTableRecord
100
AcDbLinetypeTableRecord
  2
DIVIDEX2
 70
0
  3
Divide (2x) ________  .  .  ________  .  .  _
 72
65
 73
6
 40
63.5
 49
25.3999999999999986
 74
0
 49
-12.6499999999999986
 74
0
 49
0.1
 74
0
 49
-12.5999999999999979
 74
0
 49
0.1
 74
0
 49
-12.6499999999999986
 74
0
  0
LTYPE
  5
38
100
AcDbSymbolTableRecord
100
AcDbLinetypeTableRecord
  2
DOT
 70
0
  3
Dot . . . . . . . . . . . . . . . . . . . . . . . .
 72
65
 73
2
 40
6.3499999999999996
 49
0.1
 74
0
 49
-6.25
 74
0
  0
LTYPE
  5
39
100
AcDbSymbolTableRecord
100
AcDbLinetypeTableRecord
  2
DOT2
 70
0
  3
Dot (.5x) ........................................
 72
65
 73
2
 40
3.1749999999999998
 49
0.1
 74
0
 49
-3.0749999999999997
 74
0
  0
LTYPE
  5
3A
100
AcDbSymbolTableRecord
100
AcDbLinetypeTableRecord
  2
DOTX2
 70
0
  3
Dot (2x) .  .  .  .  .  .  .  .  .  .  .  .  .  .
 72
65
 73
2
 40
12.6999999999999993
 49
0.1
 74
0
 49
-12.5999999999999996
 74
0
  0
LTYPE
  5
3B
100
AcDbSymbolTableRecord
100
AcDbLinetypeTableRecord
  2
DASHED2
 70
0
  3
Dashed (.5x) _ _ _ _ _ _ _ _ _ _ _ _ _ _ _ _ _ 
 72
65
 73
2
 40
9.5249999999999986
 49
6.3499999999999996
 74
0
 49
-3.1749999999999998
 74
0
  0
LTYPE
  5
3C
100
AcDbSymbolTableRecord
100
AcDbLinetypeTableRecord
  2
DASHEDX2
 70
0
  3
Dashed (2x) ____  ____  ____  ____  ____  ___
 72
65
 73
2
 40
38.0999999999999943
 49
25.3999999999999986
 74
0
 49
-12.6999999999999993
 74
0
  0
LTYPE
  5
3D
100
AcDbSymbolTableRecord
100
AcDbLinetypeTableRecord
  2
DIVIDE
 70
0
  3
Divide ____ . . ____ . . ____ . . ____ . . ____
 72
65
 73
6
 40
31.7500000000000036
 49
12.6999999999999993
 74
0
 49
-6.2999999999999998
 74
0
 49
0.1
 74
0
 49
-6.25
 74
0
 49
0.1
 74
0
 49
-6.2999999999999998
 74
0
  0
LTYPE
  5
3E
100
AcDbSymbolTableRecord
100
AcDbLinetypeTableRecord
  2
DIVIDE2
 70
0
  3
Divide (.5x) __..__..__..__..__..__..__..__.._
 72
65
 73
6
 40
15.8749999999999982
 49
6.3499999999999996
 74
0
 49
-3.125
 74
0
 49
0.1
 74
0
 49
-3.0750000000000002
 74
0
 49
0.1
 74
0
 49
-3.125
 74
0
  0
LTYPE
  5
3F
100
AcDbSymbolTableRecord
100
AcDbLinetypeTableRecord
  2
DASHDOT
 70
0
  3
Dash dot __ . __ . __ . __ . __ . __ . __ . __
 72
65
 73
4
 40
25.4000000000000021
 49
12.6999999999999993
 74
0
 49
-6.2999999999999998
 74
0
 49
0.1
 74
0
 49
-6.2999999999999998
 74
0
  0
LTYPE
  5
40
100
AcDbSymbolTableRecord
100
AcDbLinetypeTableRecord
  2
DASHDOT2
 70
0
  3
Dash dot (.5x) _._._._._._._._._._._._._._._.
 72
65
 73
4
 40
12.6999999999999993
 49
6.3499999999999996
 74
0
 49
-3.125
 74
0
 49
0.1
 74
0
 49
-3.125
 74
0
  0
LTYPE
  5
41
100
AcDbSymbolTableRecord
100
AcDbLinetypeTableRecord
  2
DASHDOTX2
 70
0
  3
Dash dot (2x) ____  .  ____  .  ____  .  ___
 72
65
 73
4
 40
50.7999999999999972
 49
25.3999999999999986
 74
0
 49
-12.6499999999999986
 74
0
 49
0.1
 74
0
 49
-12.6499999999999986
 74
0
  0
LTYPE
  5
42
100
AcDbSymbolTableRecord
100
AcDbLinetypeTableRecord
  2
DASHED
 70
0
  3
Dashed __ __ __ __ __ __ __ __ __ __ __ __ __ _
 72
65
 73
2
 40
19.0499999999999972
 49
12.6999999999999993
 74
0
 49
-6.3499999999999996
 74
0
  0
LTYPE
  5
43
100
AcDbSymbolTableRecord
100
AcDbLinetypeTableRecord
  2
BORDERX2
 70
0
  3
Border (2x) ____  ____  .  ____  ____  .  ___
 72
65
 73
6
 40
88.8999999999999773
 49
25.3999999999999986
 74
0
 49
-12.6999999999999993
 74
0
 49
25.3999999999999986
 74
0
 49
-12.6499999999999986
 74
0
 49
0.1
 74
0
 49
-12.6499999999999986
 74
0
  0
LTYPE
  5
44
100
AcDbSymbolTableRecord
100
AcDbLinetypeTableRecord
  2
CENTER
 70
0
  3
Center ____ _ ____ _ ____ _ ____ _ ____ _ ____
 72
65
 73
4
 40
50.8000000000000043
 49
31.75
 74
0
 49
-6.3499999999999996
 74
0
 49
6.3499999999999996
 74
0
 49
-6.3499999999999996
 74
0
  0
LTYPE
  5
45
100
AcDbSymbolTableRecord
100
AcDbLinetypeTableRecord
  2
CENTER2
 70
0
  3
Center (.5x) ___ _ ___ _ ___ _ ___ _ ___ _ ___
 72
65
 73
4
 40
28.5750000000000028
 49
19.0500000000000007
 74
0
 49
-3.1749999999999998
 74
0
 49
3.1749999999999998
 74
0
 49
-3.1749999999999998
 74
0
  0
LTYPE
  5
46
100
AcDbSymbolTableRecord
100
AcDbLinetypeTableRecord
  2
CENTERX2
 70
0
  3
Center (2x) ________  __  ________  __  _____
 72
65
 73
4
 40
101.6000000000000085
 49
63.5
 74
0
 49
-12.6999999999999993
 74
0
 49
12.6999999999999993
 74
0
 49
-12.6999999999999993
 74
0
  0
LTYPE
  5
47
100
AcDbSymbolTableRecord
100
AcDbLinetypeTableRecord
  2
ACAD_ISO14W100
 70
0
  3
ISO dash triple-dot __ . . . __ . . . __ . . . _
 72
65
 73
8
 40
24.0000000000000036
 49
12.0
 74
0
 49
-2.9500000000000002
 74
0
 49
0.1
 74
0
 49
-2.9000000000000004
 74
0
 49
0.1
 74
0
 49
-2.9000000000000004
 74
0
 49
0.1
 74
0
 49
-2.9500000000000002
 74
0
  0
LTYPE
  5
48
100
AcDbSymbolTableRecord
100
AcDbLinetypeTableRecord
  2
ACAD_ISO15W100
 70
0
  3
ISO double-dash triple-dot __ __ . . . __ __ . .
 72
65
 73
10
 40
39.0000000000000071
 49
12.0
 74
0
 49
-3.0
 74
0
 49
12.0
 74
0
 49
-2.9500000000000002
 74
0
 49
0.1
 74
0
 49
-2.9000000000000004
 74
0
 49
0.1
 74
0
 49
-2.9000000000000004
 74
0
 49
0.1
 74
0
 49
-2.9500000000000002
 74
0
  0
LTYPE
  5
49
100
AcDbSymbolTableRecord
100
AcDbLinetypeTableRecord
  2
BORDER
 70
0
  3
Border __ __ . __ __ . __ __ . __ __ . __ __ .
 72
65
 73
6
 40
44.4499999999999957
 49
12.6999999999999993
 74
0
 49
-6.3499999999999996
 74
0
 49
12.6999999999999993
 74
0
 49
-6.2999999999999998
 74
0
 49
0.1
 74
0
 49
-6.2999999999999998
 74
0
  0
LTYPE
  5
4A
100
AcDbSymbolTableRecord
100
AcDbLinetypeTableRecord
  2
BORDER2
 70
0
  3
Border (.5x) __.__.__.__.__.__.__.__.__.__.__.
 72
65
 73
6
 40
22.2250000000000014
 49
6.3499999999999996
 74
0
 49
-3.1749999999999998
 74
0
 49
6.3499999999999996
 74
0
 49
-3.125
 74
0
 49
0.1
 74
0
 49
-3.125
 74
0
  0
LTYPE
  5
4B
100
AcDbSymbolTableRecord
100
AcDbLinetypeTableRecord
  2
ACAD_ISO10W100
 70
0
  3
ISO dash dot __ . __ . __ . __ . __ . __ . __ . 
 72
65
 73
4
 40
18.0
 49
12.0
 74
0
 49
-2.9500000000000002
 74
0
 49
0.1
 74
0
 49
-2.9500000000000002
 74
0
  0
LTYPE
  5
4C
100
AcDbSymbolTableRecord
100
AcDbLinetypeTableRecord
  2
ACAD_ISO11W100
 70
0
  3
ISO double-dash dot __ __ . __ __ . __ __ . __ _
 72
65
 73
6
 40
33.0
 49
12.0
 74
0
 49
-3.0
 74
0
 49
12.0
 74
0
 49
-2.9500000000000002
 74
0
 49
0.1
 74
0
 49
-2.9500000000000002
 74
0
  0
LTYPE
  5
4D
100
AcDbSymbolTableRecord
100
AcDbLinetypeTableRecord
  2
ACAD_ISO12W100
 70
0
  3
ISO dash double-dot __ . . __ . . __ . . __ . . 
 72
65
 73
6
 40
21.0
 49
12.0
 74
0
 49
-2.9500000000000002
 74
0
 49
0.1
 74
0
 49
-2.9000000000000004
 74
0
 49
0.1
 74
0
 49
-2.9500000000000002
 74
0
  0
LTYPE
  5
4E
100
AcDbSymbolTableRecord
100
AcDbLinetypeTableRecord
  2
ACAD_ISO13W100
 70
0
  3
ISO double-dash double-dot __ __ . . __ __ . . _
 72
65
 73
8
 40
36.0000000000000071
 49
12.0
 74
0
 49
-3.0
 74
0
 49
12.0
 74
0
 49
-2.9500000000000002
 74
0
 49
0.1
 74
0
 49
-2.9000000000000004
 74
0
 49
0.1
 74
0
 49
-2.9500000000000002
 74
0
  0
LTYPE
  5
4F
100
AcDbSymbolTableRecord
100
AcDbLinetypeTableRecord
  2
ACAD_ISO06W100
 70
0
  3
ISO long-dash triple-dot ____ ... ____ ... ____
 72
65
 73
8
 40
36.0000000000000071
 49
24.0
 74
0
 49
-2.9500000000000002
 74
0
 49
0.1
 74
0
 49
-2.9000000000000004
 74
0
 49
0.1
 74
0
 49
-2.9000000000000004
 74
0
 49
0.1
 74
0
 49
-2.9500000000000002
 74
0
  0
LTYPE
  5
50
100
AcDbSymbolTableRecord
100
AcDbLinetypeTableRecord
  2
ACAD_ISO07W100
 70
0
  3
ISO dot . . . . . . . . . . . . . . . . . . . . 
 72
65
 73
2
 40
3.0
 49
0.1
 74
0
 49
-2.8999999999999999
 74
0
  0
LTYPE
  5
51
100
AcDbSymbolTableRecord
100
AcDbLinetypeTableRecord
  2
ACAD_ISO08W100
 70
0
  3
ISO long-dash short-dash ____ __ ____ __ ____ _
 72
65
 73
4
 40
36.0
 49
24.0
 74
0
 49
-3.0
 74
0
 49
6.0
 74
0
 49
-3.0
 74
0
  0
LTYPE
  5
52
100
AcDbSymbolTableRecord
100
AcDbLinetypeTableRecord
  2
ACAD_ISO09W100
 70
0
  3
ISO long-dash double-short-dash ____ __ __ ____
 72
65
 73
6
 40
45.0
 49
24.0
 74
0
 49
-3.0
 74
0
 49
6.0
 74
0
 49
-3.0
 74
0
 49
6.0
 74
0
 49
-3.0
 74
0
  0
LTYPE
  5
53
100
AcDbSymbolTableRecord
100
AcDbLinetypeTableRecord
  2
ACAD_ISO02W100
 70
0
  3
ISO dash __ __ __ __ __ __ __ __ __ __ __ __ __
 72
65
 73
2
 40
15.0
 49
12.0
 74
0
 49
-3.0
 74
0
  0
LTYPE
  5
54
100
AcDbSymbolTableRecord
100
AcDbLinetypeTableRecord
  2
ACAD_ISO03W100
 70
0
  3
ISO dash space __    __    __    __    __    __
 72
65
 73
2
 40
30.0
 49
12.0
 74
0
 49
-18.0
 74
0
  0
LTYPE
  5
55
100
AcDbSymbolTableRecord
100
AcDbLinetypeTableRecord
  2
ACAD_ISO04W100
 70
0
  3
ISO long-dash dot ____ . ____ . ____ . ____ . _
 72
65
 73
4
 40
30.0
 49
24.0
 74
0
 49
-2.9500000000000002
 74
0
 49
0.1
 74
0
 49
-2.9500000000000002
 74
0
  0
LTYPE
  5
56
100
AcDbSymbolTableRecord
100
AcDbLinetypeTableRecord
  2
ACAD_ISO05W100
 70
0
  3
ISO long-dash double-dot ____ .. ____ .. ____ . 
 72
65
 73
6
 40
33.0000000000000071
 49
24.0
 74
0
 49
-2.9500000000000002
 74
0
 49
0.1
 74
0
 49
-2.9000000000000004
 74
0
 49
0.1
 74
0
 49
-2.9500000000000002
 74
0
  0
LTYPE
  5
15
100
AcDbSymbolTableRecord
100
AcDbLinetypeTableRecord
  2
BYLAYER
 70
0
  3

 72
65
 73
0
 40
0.0
  0
LTYPE
  5
14
100
AcDbSymbolTableRecord
100
AcDbLinetypeTableRecord
  2
BYBLOCK
 70
0
  3

 72
65
 73
0
 40
0.0
  0
ENDTAB
  0
TABLE
  2
LAYER
  5
2
100
AcDbSymbolTable
 70
1
  0
LAYER
  5
10
100
AcDbSymbolTableRecord
100
AcDbLayerTableRecord
  2
0
 70
0
 62
7
420
16777215
  6
Continuous
370
25
390
F
  0
ENDTAB
  0
TABLE
  2
STYLE
  5
3
100
AcDbSymbolTable
 70
1
  0
STYLE
  5
57
100
AcDbSymbolTableRecord
100
AcDbTextStyleTableRecord
  2
Standard
 70
0
 40
0.0
 41
1.0
 50
0.0
 71
0
 42
2.5
  3

  4

1001
ACAD
1000
txt
1071
0
  0
ENDTAB
  0
TABLE
  2
VIEW
  5
6
100
AcDbSymbolTable
 70
0
  0
ENDTAB
  0
TABLE
  2
UCS
  5
7
100
AcDbSymbolTable
 70
0
  0
ENDTAB
  0
TABLE
  2
APPID
  5
9
100
AcDbSymbolTable
 70
1
  0
APPID
  5
12
100
AcDbSymbolTableRecord
100
AcDbRegAppTableRecord
  2
ACAD
 70
0
  0
APPID
  5
58
100
AcDbSymbolTableRecord
100
AcDbRegAppTableRecord
  2
UVCAD
 70
0
  0
ENDTAB
  0
TABLE
  2
DIMSTYLE
  5
A
100
AcDbSymbolTable
 70
1
100
AcDbDimStyleTable
 71
0
  0
DIMSTYLE
105
27
100
AcDbSymbolTableRecord
100
AcDbDimStyleTableRecord
  2
Standard
 41
2.5
 42
0.625
 43
3.75
 44
1.25
 70
0
 73
0
 74
0
 77
1
 78
8
140
2.5
141
2.5
143
0.03937007874016
147
0.625
171
3
172
1
271
2
272
2
274
3
278
44
283
0
284
8
340
57
  0
ENDTAB
  0
TABLE
  2
BLOCK_RECORD
  5
1
100
AcDbSymbolTable
 70
1
  0
BLOCK_RECORD
  5
1F
100
AcDbSymbolTableRecord
100
AcDbBlockTableRecord
  2
*Model_Space
340
22
  0
BLOCK_RECORD
  5
1B
100
AcDbSymbolTableRecord
100
AcDbBlockTableRecord
  2
*Paper_Space
340
1E
  0
BLOCK_RECORD
  5
23
100
AcDbSymbolTableRecord
100
AcDbBlockTableRecord
  2
*Paper_Space0
340
26
  0
ENDTAB
  0
ENDSEC
  0
SECTION
  2
BLOCKS
  0
BLOCK
  5
20
100
AcDbEntity
  8
0
100
AcDbBlockBegin
  2
*Model_Space
 70
0
 10
0.0
 20
0.0
 30
0.0
  3
*Model_Space
  1

  0
ENDBLK
  5
21
100
AcDbEntity
  8
0
100
AcDbBlockEnd
  0
BLOCK
  5
1C
100
AcDbEntity
 67
1
  8
0
100
AcDbBlockBegin
  2
*Paper_Space
 70
0
 10
0.0
 20
0.0
 30
0.0
  3
*Paper_Space
  1

  0
ENDBLK
  5
1D
100
AcDbEntity
 67
1
  8
0
100
AcDbBlockEnd
  0
BLOCK
  5
24
100
AcDbEntity
  8
0
100
AcDbBlockBegin
  2
*Paper_Space0
 70
0
 10
0.0
 20
0.0
 30
0.0
  3
*Paper_Space0
  1

  0
ENDBLK
  5
25
100
AcDbEntity
  8
0
100
AcDbBlockEnd
  0
ENDSEC
  0
SECTION
  2
ENTITIES
  0
ARC
  5
59
100
AcDbEntity
  8
0
 62
256
370
-1
 48
1.0
  6
BYLAYER
100
AcDbCircle
 10
60.7579904892645999
 20
11.6062444743894524
 30
0.0
 40
31.3566818763077073
100
AcDbArc
 50
173.0591039028708451
 51
203.0591039028709019
  0
ARC
  5
5A
100
AcDbEntity
  8
0
 62
256
370
-1
 48
1.0
  6
BYLAYER
100
AcDbCircle
 10
92.1741669662855827
 20
20.3324782452373505
 30
0.0
 40
62.7376046828962544
100
AcDbArc
 50
169.5133630095249089
 51
184.5133630095249373
  0
ARC
  5
5B
100
AcDbEntity
  8
0
 62
256
370
-1
 48
1.0
  6
BYLAYER
100
AcDbCircle
 10
45.9896841319235321
 20
1.7210026813386157
 30
0.0
 40
14.2854776717320036
100
AcDbArc
 50
189.6577140078169919
 51
351.1692315255423864
  0
ARC
  5
5C
100
AcDbEntity
  8
0
 62
256
370
-1
 48
1.0
  6
BYLAYER
100
AcDbCircle
 10
-33.5713999108265995
 20
19.2341582221102065
 30
0.0
 40
95.7275137003773153
100
AcDbArc
 50
348.1203079998238081
 51
8.1203079998237602
  0
LINE
  5
5D
100
AcDbEntity
  8
0
 62
256
370
-1
 48
1.0
  6
BYLAYER
100
AcDbLine
 10
46.0395129480897154
 20
-5.9194222797350697
 30
0.0
 11
42.677614313548375
 21
-8.3141993892713693
 31
0.0
  0
LINE
  5
5E
100
AcDbEntity
  8
0
 62
256
370
-1
 48
1.0
  6
BYLAYER
100
AcDbLine
 10
42.677614313548375
 20
-8.3141993892713693
 30
0.0
 11
48.001660306576369
 21
-11.2109644136597844
 31
0.0
  0
LINE
  5
5F
100
AcDbEntity
  8
0
 62
256
370
-1
 48
1.0
  6
BYLAYER
100
AcDbLine
 10
37.1714170645987352
 20
9.9531624993837937
 30
0.0
 11
34.9823647674719567
 21
5.3796068071724932
 31
0.0
  0
ARC
  5
60
100
AcDbEntity
  8
0
 62
256
370
-1
 48
1.0
  6
BYLAYER
100
AcDbCircle
 10
40.2431257116571572
 20
36.9789336793509875
 30
0.0
 40
32.0342483053160763
100
AcDbArc
 50
260.5478989966234167
 51
295.5478989966233598
  0
ARC
  5
61
100
AcDbEntity
  8
0
 62
256
370
-1
 48
1.0
  6
BYLAYER
100
AcDbCircle
 10
48.1396110828889618
 20
9.2300679681507489
 30
0.0
 40
10.5642793012911724
100
AcDbArc
 50
203.6379603510045229
 51
223.6379603510045513
  0
ARC
  5
62
100
AcDbEntity
  8
0
 62
256
370
-1
 48
1.0
  6
BYLAYER
100
AcDbCircle
 10
45.2741058130157299
 20
17.4866824085220891
 30
0.0
 40
16.2652471572359509
100
AcDbArc
 50
252.9096501993421953
 51
314.7075945723726704
  0
ARC
  5
63
100
AcDbEntity
  8
0
 62
256
370
-1
 48
1.0
  6
BYLAYER
100
AcDbCircle
 10
43.1003698966704221
 20
-8.1894597313447033
 30
0.0
 40
19.6130184366757483
100
AcDbArc
 50
46.0332530062010434
 51
56.0332530062010505
  0
LINE
  5
64
100
AcDbEntity
  8
0
 62
256
370
-1
 48
1.0
  6
BYLAYER
100
AcDbLine
 10
54.0583919281481258
 20
8.0768319589893842
 30
0.0
 11
51.2048058979650236
 21
10.2658842561161876
 31
0.0
  0
LINE
  5
65
100
AcDbEntity
  8
0
 62
256
370
-1
 48
1.0
  6
BYLAYER
100
AcDbLine
 10
42.1372076387836785
 20
5.0007298814517318
 30
0.0
 11
44.489596742948919
 21
1.240365576545829
 31
0.0
  0
LINE
  5
66
100
AcDbEntity
  8
0
 62
256
370
-1
 48
1.0
  6
BYLAYER
100
AcDbLine
 10
46.8396318312907098
 20
5.6312197036831098
 30
0.0
 11
49.1562884971956393
 21
1.6915273699469413
 31
0.0
  0
ARC
  5
67
100
AcDbEntity
  8
0
 62
256
370
-1
 48
1.0
  6
BYLAYER
100
AcDbCircle
 10
54.1595660038500455
 20
7.1574751555836231
 30
0.0
 40
3.0949355969569332
100
AcDbArc
 50
186.0005386891972705
 51
276.0005386891972421
  0
ARC
  5
68
100
AcDbEntity
  8
0
 62
256
370
-1
 48
1.0
  6
BYLAYER
100
AcDbCircle
 10
45.5805087898544556
 20
16.0583250641472155
 30
0.0
 40
4.0031837187289296
100
AcDbArc
 50
147.6193222934308835
 51
237.6193222934307983
  0
CIRCLE
  5
69
100
AcDbEntity
  8
0
 62
256
370
-1
 48
1.0
  6
BYLAYER
100
AcDbCircle
 10
38.8190628067011332
 20
20.0162446640418423
 30
0.0
 40
3.8366720721601713
  0
CIRCLE
  5
6A
100
AcDbEntity
  8
0
 62
256
370
-1
 48
1.0
  6
BYLAYER
100
AcDbCircle
 10
53.403433324816362
 20
20.1926282202683112
 30
0.0
 40
3.8366720721601713
  0
LINE
  5
6B
100
AcDbEntity
  8
0
 62
256
370
-1
 48
1.0
  6
BYLAYER
100
AcDbLine
 10
43.4366356732448651
 20
12.6776020725705525
 30
0.0
 11
47.9591393017783574
 21
13.9558103837500909
 31
0.0
  0
CIRCLE
  5
6C
100
AcDbEntity
  8
0
 62
256
370
-1
 48
1.0
  6
BYLAYER
100
AcDbCircle
 10
38.2173219997002178
 20
19.8535733958341112
 30
0.0
 40
0.6233409502915878
  0
CIRCLE
  5
6D
100
AcDbEntity
  8
0
 62
256
370
-1
 48
1.0
  6
BYLAYER
100
AcDbCircle
 10
53.403433324816362
 20
20.1926282202683112
 30
0.0
 40
0.6233409502915878
  0
ARC
  5
6E
100
AcDbEntity
  8
0
 62
256
370
-1
 48
1.0
  6
BYLAYER
100
AcDbCircle
 10
62.078733709677401
 20
14.8020715643465888
 30
0.0
 40
4.1907178387429882
100
AcDbArc
 50
265.5803449048434004
 51
89.3542280652420828
  0
ARC
  5
6F
100
AcDbEntity
  8
0
 62
256
370
-1
 48
1.0
  6
BYLAYER
100
AcDbCircle
 10
62.0034970123983982
 20
14.6336338924803382
 30
0.0
 40
3.3509125295283018
100
AcDbArc
 50
266.7561119713085418
 51
73.6667998607780845
  0
LINE
  5
70
100
AcDbEntity
  8
0
 62
256
370
-1
 48
1.0
  6
BYLAYER
100
AcDbLine
 10
62.9458500923007449
 20
17.8493119630197867
 30
0.0
 11
61.9843708175920725
 21
13.8135713839466465
 31
0.0
  0
ARC
  5
71
100
AcDbEntity
  8
0
 62
256
370
-1
 48
1.0
  6
BYLAYER
100
AcDbCircle
 10
41.6754529562726219
 20
29.3658809617289549
 30
0.0
 40
15.2116011498168007
100
AcDbArc
 50
126.4306635358464348
 51
216.4306635358464348
  0
ARC
  5
72
100
AcDbEntity
  8
0
 62
256
370
-1
 48
1.0
  6
BYLAYER
100
AcDbCircle
 10
45.2936887636403824
 20
48.9638426195298564
 30
0.0
 40
22.706647557192337
100
AcDbArc
 50
229.2924253704629791
 51
319.2924253704629791
  0
ARC
  5
73
100
AcDbEntity
  8
0
 62
256
370
-1
 48
1.0
  6
BYLAYER
100
AcDbCircle
 10
43.8491485887808992
 20
22.9474999513340236
 30
0.0
 40
21.7644857524319093
100
AcDbArc
 50
30.9925050392008927
 51
120.9925050392008785
  0
ARC
  5
74
100
AcDbEntity
  8
0
 62
256
370
-1
 48
1.0
  6
BYLAYER
100
AcDbCircle
 10
54.7498551308226311
 20
26.7486457274594152
 30
0.0
 40
10.7243851246545336
100
AcDbArc
 50
313.6753492092160513
 51
43.6753492092160656
  0
ARC
  5
75
100
AcDbEntity
  8
0
 62
256
370
-1
 48
1.0
  6
BYLAYER
100
AcDbCircle
 10
47.613768078046256
 20
15.9820744904660614
 30
0.0
 40
23.2825308780620936
100
AcDbArc
 50
47.3677269369634857
 51
137.3677269369634644
  0
LINE
  5
76
100
AcDbEntity
  8
0
 62
256
370
-1
 48
1.0
  6
BYLAYER
100
AcDbLine
 10
29.4365622833893283
 20
20.3324782452372972
 30
0.0
 11
39.0946181405933189
 21
37.6500307492162278
 31
0.0
  0
ARC
  5
77
100
AcDbEntity
  8
0
 62
256
370
-1
 48
1.0
  6
BYLAYER
100
AcDbCircle
 10
-8.8394914021550441
 20
208.7384671505130598
 30
0.0
 40
223.0080851792441763
100
AcDbArc
 50
275.5876954030123329
 51
281.8945576977694145
  0
ARC
  5
78
100
AcDbEntity
  8
0
 62
256
370
-1
 48
1.0
  6
BYLAYER
100
AcDbCircle
 10
501.1229357407722205
 20
1493.4627692890730941
 30
0.0
 40
1564.766425383040314
100
AcDbArc
 50
253.5218284521839394
 51
254.5218284521839394
  0
LINE
  5
79
100
AcDbEntity
  8
0
 62
256
370
-1
 48
1.0
  6
BYLAYER
100
AcDbLine
 10
10.6685407223971858
 20
-37.6025952560538528
 30
0.0
 11
-3.6266574613734974
 21
-97.0645687999538325
 31
0.0
  0
ARC
  5
7A
100
AcDbEntity
  8
0
 62
256
370
-1
 48
1.0
  6
BYLAYER
100
AcDbCircle
 10
1072.8525222523837783
 20
-54.729871986346609
 30
0.0
 40
990.1361999967779184
100
AcDbArc
 50
177.6744647648625062
 51
182.6744647648630746
  0
ARC
  5
7B
100
AcDbEntity
  8
0
 62
256
370
-1
 48
1.0
  6
BYLAYER
100
AcDbCircle
 10
22.104959688565561
 20
-47.814246598834707
 30
0.0
 40
51.449101015364711
100
AcDbArc
 50
250.9893249057963374
 51
295.9893249057963658
  0
ARC
  5
7C
100
AcDbEntity
  8
0
 62
256
370
-1
 48
1.0
  6
BYLAYER
100
AcDbCircle
 10
72.515647812591908
 20
-50.2439489478175645
 30
0.0
 40
51.9267232849189355
100
AcDbArc
 50
237.5453930564443112
 51
282.5453930564443112
  0
LINE
  5
7D
100
AcDbEntity
  8
0
 62
256
370
-1
 48
1.0
  6
BYLAYER
100
AcDbLine
 10
5.3457075924103528
 20
-96.4572056419142712
 30
0.0
 11
10.9949010193279264
 21
-202.5918349049666176
 31
0.0
  0
LINE
  5
7E
100
AcDbEntity
  8
0
 62
256
370
-1
 48
1.0
  6
BYLAYER
100
AcDbLine
 10
10.9949010193279264
 20
-202.5918349049666176
 30
0.0
 11
37.0743104663147847
 21
-202.5918349049666176
 31
0.0
  0
LINE
  5
7F
100
AcDbEntity
  8
0
 62
256
370
-1
 48
1.0
  6
BYLAYER
100
AcDbLine
 10
37.0743104663147847
 20
-202.5918349049666176
 30
0.0
 11
39.8785480412595916
 21
-120.9885214740722574
 31
0.0
  0
LINE
  5
80
100
AcDbEntity
  8
0
 62
256
370
-1
 48
1.0
  6
BYLAYER
100
AcDbLine
 10
39.8785480412595916
 20
-120.9885214740722574
 30
0.0
 11
56.7039734909285187
 21
-120.4276739590833074
 31
0.0
  0
LINE
  5
81
100
AcDbEntity
  8
0
 62
256
370
-1
 48
1.0
  6
BYLAYER
100
AcDbLine
 10
56.7039734909285187
 20
-120.4276739590833074
 30
0.0
 11
70.1643138506637172
 21
-187.8345346668194793
 31
0.0
  0
LINE
  5
82
100
AcDbEntity
  8
0
 62
256
370
-1
 48
1.0
  6
BYLAYER
100
AcDbLine
 10
70.1643138506637172
 20
-187.8345346668194793
 30
0.0
 11
68.7621950631912284
 21
-201.7505636324831642
 31
0.0
  0
LINE
  5
83
100
AcDbEntity
  8
0
 62
256
370
-1
 48
1.0
  6
BYLAYER
100
AcDbLine
 10
68.7621950631912284
 20
-201.7505636324831642
 30
0.0
 11
98.7675371151009074
 21
-202.8722586624610926
 31
0.0
  0
LINE
  5
84
100
AcDbEntity
  8
0
 62
256
370
-1
 48
1.0
  6
BYLAYER
100
AcDbLine
 10
98.7675371151009074
 20
-202.8722586624610926
 30
0.0
 11
83.7948084316617354
 21
-100.9308814535223036
 31
0.0
  0
LINE
  5
85
100
AcDbEntity
  8
0
 62
256
370
-1
 48
1.0
  6
BYLAYER
100
AcDbLine
 10
10.9949010193279264
 20
-202.591834904966646
 30
0.0
 11
0.8410763161220984
 21
-227.1977156601901697
 31
0.0
  0
ARC
  5
86
100
AcDbEntity
  8
0
 62
256
370
-1
 48
1.0
  6
BYLAYER
100
AcDbCircle
 10
10.238045872424955
 20
-219.246433727933919
 30
0.0
 40
12.3095865571638008
100
AcDbArc
 50
220.2363583092737827
 51
310.2363583092738395
  0
LINE
  5
87
100
AcDbEntity
  8
0
 62
256
370
-1
 48
1.0
  6
BYLAYER
100
AcDbLine
 10
18.189327804681227
 20
-228.6434032842367685
 30
0.0
 11
37.0743104663147847
 21
-202.5918349049666176
 31
0.0
  0
LINE
  5
88
100
AcDbEntity
  8
0
 62
256
370
-1
 48
1.0
  6
BYLAYER
100
AcDbLine
 10
68.7621950631912284
 20
-201.7505636324831642
 30
0.0
 11
76.016832766544951
 21
-230.8119347203066525
 31
0.0
  0
LINE
  5
89
100
AcDbEntity
  8
0
 62
256
370
-1
 48
1.0
  6
BYLAYER
100
AcDbLine
 10
98.7675371151009074
 20
-202.8722586624610926
 30
0.0
 11
97.7021471272438475
 21
-229.1252991589189492
 31
0.0
  0
ARC
  5
8A
100
AcDbEntity
  8
0
 62
256
370
-1
 48
1.0
  6
BYLAYER
100
AcDbCircle
 10
86.0161721662005334
 20
-219.1259597592633384
 30
0.0
 40
15.3801430168784776
100
AcDbArc
 50
229.4473848500906001
 51
319.4473848500904865
  0
LINE
  5
8B
100
AcDbEntity
  8
0
 62
256
370
-1
 48
1.0
  6
BYLAYER
100
AcDbLine
 10
20.1953878752123153
 20
-12.3714191971166496
 30
0.0
 11
50.902656890283339
 21
-55.163616539407613
 31
0.0
  0
LINE
  5
8C
100
AcDbEntity
  8
0
 62
256
370
-1
 48
1.0
  6
BYLAYER
100
AcDbLine
 10
50.902656890283339
 20
-55.163616539407613
 30
0.0
 11
75.6638113932089738
 21
-12.3521262128349765
 31
0.0
  0
LINE
  5
8D
100
AcDbEntity
  8
0
 62
256
370
-1
 48
1.0
  6
BYLAYER
100
AcDbLine
 10
25.0511177547993675
 20
-11.6793920766457404
 30
0.0
 11
50.127898436321999
 21
-46.1764184734560104
 31
0.0
  0
LINE
  5
8E
100
AcDbEntity
  8
0
 62
256
370
-1
 48
1.0
  6
BYLAYER
100
AcDbLine
 10
50.127898436321999
 20
-46.1764184734560104
 30
0.0
 11
70.3879356767414492
 21
-10.8514684039221265
 31
0.0
  0
LINE
  5
8F
100
AcDbEntity
  8
0
 62
256
370
-1
 48
1.0
  6
BYLAYER
100
AcDbLine
 10
50.902656890283339
 20
-55.1636165394076201
 30
0.0
 11
44.6501450801004012
 21
-94.0605935999820133
 31
0.0
  0
LINE
  5
90
100
AcDbEntity
  8
0
 62
256
370
-1
 48
1.0
  6
BYLAYER
100
AcDbLine
 10
25.0511177547993427
 20
-11.6793920766457067
 30
0.0
 11
45.3986815451534014
 21
-16.3543187188636949
 31
0.0
  0
LINE
  5
91
100
AcDbEntity
  8
0
 62
256
370
-1
 48
1.0
  6
BYLAYER
100
AcDbLine
 10
45.3986815451534156
 20
-16.3543187188636878
 30
0.0
 11
70.3879356767415061
 21
-10.8514684039220199
 31
0.0
  0
LINE
  5
92
100
AcDbEntity
  8
0
 62
256
370
-1
 48
1.0
  6
BYLAYER
100
AcDbLine
 10
50.127898436321999
 20
-46.1764184734560175
 30
0.0
 11
46.0927738317142257
 21
-12.5641030173725667
 31
0.0
  0
LINE
  5
93
100
AcDbEntity
  8
0
 62
256
370
-1
 48
1.0
  6
BYLAYER
100
AcDbLine
 10
46.0927738317142399
 20
-12.5641030173725703
 30
0.0
 11
52.9172206637937066
 21
-14.6986712497936836
 31
0.0
  0
LINE
  5
94
100
AcDbEntity
  8
0
 62
256
370
-1
 48
1.0
  6
BYLAYER
100
AcDbLine
 10
46.0927738317142257
 20
-12.5641030173725667
 30
0.0
 11
39.3190822658301329
 21
-14.9575087155751838
 31
0.0
  0
LINE
  5
95
100
AcDbEntity
  8
0
 62
256
370
-1
 48
1.0
  6
BYLAYER
100
AcDbLine
 10
39.3190822658301329
 20
-14.9575087155751838
 30
0.0
 11
47.4040616105850319
 21
-42.4293557196118627
 31
0.0
  0
LINE
  5
96
100
AcDbEntity
  8
0
 62
256
370
-1
 48
1.0
  6
BYLAYER
100
AcDbLine
 10
52.8807356931184813
 20
-41.3766326936014792
 30
0.0
 11
52.9172206637937137
 21
-14.6986712497936853
 31
0.0
  0
LINE
  5
97
100
AcDbEntity
  8
0
 62
256
370
-1
 48
1.0
  6
BYLAYER
100
AcDbLine
 10
49.1413607245839472
 20
-33.1475560666374136
 30
0.0
 11
49.1413607245839614
 21
-33.1475560666374136
 31
0.0
  0
LINE
  5
98
100
AcDbEntity
  8
0
 62
256
370
-1
 48
1.0
  6
BYLAYER
100
AcDbLine
 10
12.8746200242770676
 20
-13.2099579853132667
 30
0.0
 11
-9.4477135754315213
 21
-25.2762797061914597
 31
0.0
  0
LINE
  5
99
100
AcDbEntity
  8
0
 62
256
370
-1
 48
1.0
  6
BYLAYER
100
AcDbLine
 10
-9.4477135754315213
 20
-25.2762797061914597
 30
0.0
 11
-23.4970181823564133
 21
-98.4096461531977553
 31
0.0
  0
LINE
  5
9A
100
AcDbEntity
  8
0
 62
256
370
-1
 48
1.0
  6
BYLAYER
100
AcDbLine
 10
-23.4970181823564133
 20
-98.4096461531977553
 30
0.0
 11
-3.6266574613734974
 21
-97.0645687999538325
 31
0.0
  0
LINE
  5
9B
100
AcDbEntity
  8
0
 62
256
370
-1
 48
1.0
  6
BYLAYER
100
AcDbLine
 10
5.3457075924103519
 20
-96.4572056419142569
 30
0.0
 11
12.8746200242770357
 21
-13.2099579853132845
 31
0.0
  0
LINE
  5
9C
100
AcDbEntity
  8
0
 62
256
370
-1
 48
1.0
  6
BYLAYER
100
AcDbLine
 10
83.5317883416347513
 20
-14.5530129956776477
 30
0.0
 11
110.6449723796524722
 21
-24.8913672512072139
 31
0.0
  0
LINE
  5
9D
100
AcDbEntity
  8
0
 62
256
370
-1
 48
1.0
  6
BYLAYER
100
AcDbLine
 10
110.6449723796524722
 20
-24.8913672512072139
 30
0.0
 11
108.7204101047312861
 21
-76.3493510769133081
 31
0.0
  0
LINE
  5
9E
100
AcDbEntity
  8
0
 62
256
370
-1
 48
1.0
  6
BYLAYER
100
AcDbLine
 10
108.7204101047312861
 20
-76.3493510769133081
 30
0.0
 11
108.5279538772391561
 21
-105.3380703429141505
 31
0.0
  0
LINE
  5
9F
100
AcDbEntity
  8
0
 62
256
370
-1
 48
1.0
  6
BYLAYER
100
AcDbLine
 10
108.5279538772391561
 20
-105.3380703429141505
 30
0.0
 11
91.5918058579324281
 21
-101.4889457930716929
 31
0.0
  0
LINE
  5
A0
100
AcDbEntity
  8
0
 62
256
370
-1
 48
1.0
  6
BYLAYER
100
AcDbLine
 10
91.5918058579324281
 20
-101.4889457930716929
 30
0.0
 11
82.8749896281413498
 21
-37.0047642778919581
 31
0.0
  0
LINE
  5
A1
100
AcDbEntity
  8
0
 62
256
370
-1
 48
1.0
  6
BYLAYER
100
AcDbLine
 10
10.6685407223971875
 20
-37.6025952560538528
 30
0.0
 11
12.8746200242770321
 21
-13.2099579853133235
 31
0.0
  0
LINE
  5
A2
100
AcDbEntity
  8
0
 62
256
370
-1
 48
1.0
  6
BYLAYER
100
AcDbLine
 10
82.8749896281413214
 20
-37.0047642778917947
 30
0.0
 11
83.5317883416346376
 21
-14.5530129956776033
 31
0.0
  0
LINE
  5
A3
100
AcDbEntity
  8
0
 62
256
370
-1
 48
1.0
  6
BYLAYER
100
AcDbLine
 10
108.5279538772391561
 20
-105.3380703429141647
 30
0.0
 11
108.5662752361862715
 21
-99.5659156515044259
 31
0.0
  0
ARC
  5
A4
100
AcDbEntity
  8
0
 62
256
370
-1
 48
1.0
  6
BYLAYER
100
AcDbCircle
 10
-19.8284576336012321
 20
-100.9011771166612732
 30
0.0
 40
4.4346435078572322
100
AcDbArc
 50
145.8173134378799602
 51
235.8173134378799602
  0
LINE
  5
A5
100
AcDbEntity
  8
0
 62
256
370
-1
 48
1.0
  6
BYLAYER
100
AcDbLine
 10
-3.6266574613734996
 20
-97.0645687999538325
 30
0.0
 11
-6.6662744135786767
 21
-106.3648883745318301
 31
0.0
  0
LINE
  5
A6
100
AcDbEntity
  8
0
 62
256
370
-1
 48
1.0
  6
BYLAYER
100
AcDbLine
 10
-6.6662744135786767
 20
-106.3648883745318301
 30
0.0
 11
-9.7539336332571054
 21
-112.6838188706179551
 31
0.0
  0
LINE
  5
A7
100
AcDbEntity
  8
0
 62
256
370
-1
 48
1.0
  6
BYLAYER
100
AcDbLine
 10
-9.7539336332571054
 20
-112.6838188706179551
 30
0.0
 11
-22.750824767252432
 21
-110.9155954221393046
 31
0.0
  0
LINE
  5
A8
100
AcDbEntity
  8
0
 62
256
370
-1
 48
1.0
  6
BYLAYER
100
AcDbLine
 10
-22.750824767252432
 20
-110.9155954221393046
 30
0.0
 11
-22.3199885970647358
 21
-104.5697376654164543
 31
0.0
  0
LINE
  5
A9
100
AcDbEntity
  8
0
 62
256
370
-1
 48
1.0
  6
BYLAYER
100
AcDbLine
 10
-16.2523792002547687
 20
-111.7997071463786369
 30
0.0
 11
-19.3252838420142545
 21
-111.3816393187359353
 31
0.0
  0
LINE
  5
AA
100
AcDbEntity
  8
0
 62
256
370
-1
 48
1.0
  6
BYLAYER
100
AcDbLine
 10
-20.6477992302233417
 20
-111.2017114655058379
 30
0.0
 11
-18.864259897845109
 21
-98.0960424728695415
 31
0.0
  0
LINE
  5
AB
100
AcDbEntity
  8
0
 62
256
370
-1
 48
1.0
  6
BYLAYER
100
AcDbLine
 10
-16.2523792002547687
 20
-111.7997071463786369
 30
0.0
 11
-15.0759650049782952
 21
-97.8396027564821225
 31
0.0
  0
LINE
  5
AC
100
AcDbEntity
  8
0
 62
256
370
-1
 48
1.0
  6
BYLAYER
100
AcDbLine
 10
-12.9881769894030974
 20
-112.2438009554516896
 30
0.0
 11
-10.3798604799817884
 21
-97.5217110013330171
 31
0.0
  0
LINE
  5
AD
100
AcDbEntity
  8
0
 62
256
370
-1
 48
1.0
  6
BYLAYER
100
AcDbLine
 10
-3.6266574613735054
 20
-97.0645687999538893
 30
0.0
 11
-1.7142953188106986
 21
-103.6734589584202268
 31
0.0
  0
LINE
  5
AE
100
AcDbEntity
  8
0
 62
256
370
-1
 48
1.0
  6
BYLAYER
100
AcDbLine
 10
-1.7142953188106986
 20
-103.6734589584202268
 30
0.0
 11
-7.8350891294795915
 21
-114.8845047646964161
 31
0.0
  0
LINE
  5
AF
100
AcDbEntity
  8
0
 62
256
370
-1
 48
1.0
  6
BYLAYER
100
AcDbLine
 10
-7.8350891294795915
 20
-114.8845047646964161
 30
0.0
 11
-9.7539336332570965
 21
-112.6838188706179551
 31
0.0
  0
LINE
  5
B0
100
AcDbEntity
  8
0
 62
256
370
-1
 48
1.0
  6
BYLAYER
100
AcDbLine
 10
91.5918058579324139
 20
-101.4889457930716929
 30
0.0
 11
89.6029520886706479
 21
-109.8153318117149979
 31
0.0
  0
LINE
  5
B1
100
AcDbEntity
  8
0
 62
256
370
-1
 48
1.0
  6
BYLAYER
100
AcDbLine
 10
89.6029520886706479
 20
-109.8153318117149979
 30
0.0
 11
93.8709870481446131
 21
-112.7568153648659717
 31
0.0
  0
LINE
  5
B2
100
AcDbEntity
  8
0
 62
256
370
-1
 48
1.0
  6
BYLAYER
100
AcDbLine
 10
93.8709870481446131
 20
-112.7568153648659717
 30
0.0
 11
96.7547944531945916
 21
-122.5040843939348889
 31
0.0
  0
LINE
  5
B3
100
AcDbEntity
  8
0
 62
256
370
-1
 48
1.0
  6
BYLAYER
100
AcDbLine
 10
96.7547944531945916
 20
-122.5040843939348889
 30
0.0
 11
110.8277745898384836
 21
-122.1580275053288887
 31
0.0
  0
LINE
  5
B4
100
AcDbEntity
  8
0
 62
256
370
-1
 48
1.0
  6
BYLAYER
100
AcDbLine
 10
110.8277745898384836
 20
-122.1580275053288887
 30
0.0
 11
108.5279538772391703
 21
-105.3380703429141363
 31
0.0
  0
LINE
  5
B5
100
AcDbEntity
  8
0
 62
256
370
-1
 48
1.0
  6
BYLAYER
100
AcDbLine
 10
89.6029520886706479
 20
-109.8153318117149979
 30
0.0
 11
88.3400048014146648
 21
-115.7382430299168732
 31
0.0
  0
LINE
  5
B6
100
AcDbEntity
  8
0
 62
256
370
-1
 48
1.0
  6
BYLAYER
100
AcDbLine
 10
88.3400048014146648
 20
-115.7382430299168732
 30
0.0
 11
94.395774566381462
 21
-114.5305971765065323
 31
0.0
  0
LINE
  5
B7
100
AcDbEntity
  8
0
 62
256
370
-1
 48
1.0
  6
BYLAYER
100
AcDbLine
 10
96.1941424963608398
 20
-102.5349313927145261
 30
0.0
 11
99.6219263614757864
 21
-122.4335811502886315
 31
0.0
  0
LINE
  5
B8
100
AcDbEntity
  8
0
 62
256
370
-1
 48
1.0
  6
BYLAYER
100
AcDbLine
 10
100.0598798675857921
 20
-103.4135080679929217
 30
0.0
 11
103.7912845215165305
 21
-122.3310559496318888
 31
0.0
  0
LINE
  5
B9
100
AcDbEntity
  8
0
 62
256
370
-1
 48
1.0
  6
BYLAYER
100
AcDbLine
 10
103.5982762391464718
 20
-104.2176890615294411
 30
0.0
 11
106.6573141842448678
 21
-122.2605798103844705
 31
0.0
  0
ENDSEC
  0
SECTION
  2
OBJECTS
  0
DICTIONARY
  5
C
100
AcDbDictionary
280
0
281
1
  3
ACAD_GROUP
350
D
  3
ACAD_LAYOUT
350
1A
  3
ACAD_MLINESTYLE
350
17
  3
ACAD_PLOTSETTINGS
350
19
  3
ACAD_PLOTSTYLENAME
350
E
  3
AcDbVariableDictionary
350
BA
  3
UVCAD_OBJECTS
350
BB
  0
DICTIONARY
  5
D
100
AcDbDictionary
280
0
281
1
  0
ACDBDICTIONARYWDFLT
  5
E
100
AcDbDictionary
281
1
  3
Normal
350
F
100
AcDbDictionaryWithDefault
340
F
  0
ACDBPLACEHOLDER
  5
F
  0
DICTIONARY
  5
17
100
AcDbDictionary
280
0
281
1
  3
Standard
350
18
  0
MLINESTYLE
  5
18
100
AcDbMlineStyle
  2
STANDARD
 70
0
  3

 62
256
 51
90.0
 52
90.0
 71
2
 49
0.5
 62
256
  6
BYLAYER
 49
-0.5
 62
256
  6
BYLAYER
  0
DICTIONARY
  5
19
100
AcDbDictionary
280
0
281
1
  0
DICTIONARY
  5
1A
100
AcDbDictionary
281
1
  3
Layout1
350
1E
  3
Layout2
350
26
  3
Model
350
22
  0
LAYOUT
  5
1E
100
AcDbPlotSettings
  1

  2
none_device
  4

  6

 40
0.0
 41
0.0
 42
0.0
 43
0.0
 44
0.0
 45
0.0
 46
0.0
 47
0.0
 48
0.0
 49
0.0
140
0.0
141
0.0
142
1.0
143
1.0
 70
688
 72
0
 73
0
 74
5
  7

 75
16
147
1.0
148
0.0
149
0.0
100
AcDbLayout
  1
Layout1
 70
1
 71
1
 10
0.0
 20
0.0
 11
420.0
 21
297.0
 12
0.0
 22
0.0
 32
0.0
 14
100000000000000000000.0
 24
100000000000000000000.0
 34
100000000000000000000.0
 15
-100000000000000000000.0
 25
-100000000000000000000.0
 35
-100000000000000000000.0
146
0.0
 13
0.0
 23
0.0
 33
0.0
 16
1.0
 26
0.0
 36
0.0
 17
0.0
 27
1.0
 37
0.0
 76
0
330
1B
  0
LAYOUT
  5
22
100
AcDbPlotSettings
  1

  2
none_device
  4

  6

 40
0.0
 41
0.0
 42
0.0
 43
0.0
 44
0.0
 45
0.0
 46
0.0
 47
0.0
 48
0.0
 49
0.0
140
0.0
141
0.0
142
1.0
143
1.0
 70
1712
 72
0
 73
0
 74
0
  7

 75
0
147
1.0
148
0.0
149
0.0
100
AcDbLayout
  1
Model
 70
1
 71
0
 10
0.0
 20
0.0
 11
12.0
 21
9.0
 12
0.0
 22
0.0
 32
0.0
 14
0.0
 24
0.0
 34
0.0
 15
0.0
 25
0.0
 35
0.0
146
0.0
 13
0.0
 23
0.0
 33
0.0
 16
1.0
 26
0.0
 36
0.0
 17
0.0
 27
1.0
 37
0.0
 76
0
330
1F
  0
LAYOUT
  5
26
100
AcDbPlotSettings
  1

  2
none_device
  4

  6

 40
0.0
 41
0.0
 42
0.0
 43
0.0
 44
0.0
 45
0.0
 46
0.0
 47
0.0
 48
0.0
 49
0.0
140
0.0
141
0.0
142
1.0
143
1.0
 70
688
 72
0
 73
0
 74
5
  7

 75
16
147
1.0
148
0.0
149
0.0
100
AcDbLayout
  1
Layout2
 70
1
 71
2
 10
0.0
 20
0.0
 11
12.0
 21
9.0
 12
0.0
 22
0.0
 32
0.0
 14
0.0
 24
0.0
 34
0.0
 15
0.0
 25
0.0
 35
0.0
146
0.0
 13
0.0
 23
0.0
 33
0.0
 16
1.0
 26
0.0
 36
0.0
 17
0.0
 27
1.0
 37
0.0
 76
0
330
23
  0
DICTIONARY
  5
BA
100
AcDbDictionary
281
1
  3
DIMASSOC
350
BD
  3
HIDETEXT
350
BC
  0
DICTIONARYVAR
  5
BC
100
DictionaryVariables
280
0
  1
2
  0
DICTIONARYVAR
  5
BD
100
DictionaryVariables
280
0
  1
1
  0
DICTIONARY
  5
BB
100
AcDbDictionary
281
1
  3
ColorSettings/BackgroundColor
350
BE
  3
ColorSettings/ColorMode
350
BF
  3
Grid/DisplayGrid00
350
C0
  3
Grid/DisplayGrid01
350
C1
  3
Grid/DisplayGrid02
350
C2
  3
Grid/DisplayGrid03
350
C3
  3
Grid/GridSpacingX00
350
C4
  3
Grid/GridSpacingX01
350
C5
  3
Grid/GridSpacingX02
350
C6
  3
Grid/GridSpacingX03
350
C7
  3
Grid/GridSpacingY00
350
C8
  3
Grid/GridSpacingY01
350
C9
  3
Grid/GridSpacingY02
350
CA
  3
Grid/GridSpacingY03
350
CB
  3
Grid/IsometricGrid00
350
CC
  3
Grid/IsometricGrid01
350
CD
  3
Grid/IsometricGrid02
350
CE
  3
Grid/IsometricGrid03
350
CF
  3
Grid/IsometricProjection00
350
D0
  3
Grid/IsometricProjection01
350
D1
  3
Grid/IsometricProjection02
350
D2
  3
Grid/IsometricProjection03
350
D3
  3
Grid/MetaGridSpacingX00
350
D4
  3
Grid/MetaGridSpacingX01
350
D5
  3
Grid/MetaGridSpacingX02
350
D6
  3
Grid/MetaGridSpacingX03
350
D7
  3
Grid/MetaGridSpacingY00
350
D8
  3
Grid/MetaGridSpacingY01
350
D9
  3
Grid/MetaGridSpacingY02
350
DA
  3
Grid/MetaGridSpacingY03
350
DB
  3
MultiPageSettings/Columns
350
DC
  3
MultiPageSettings/GlueMarginsBottom
350
DD
  3
MultiPageSettings/GlueMarginsLeft
350
DE
  3
MultiPageSettings/GlueMarginsRight
350
DF
  3
MultiPageSettings/GlueMarginsTop
350
E0
  3
MultiPageSettings/PrintCropMarks
350
E1
  3
MultiPageSettings/Rows
350
E2
  3
PageSettings/OffsetX
350
E3
  3
PageSettings/OffsetY
350
E4
  3
PageSettings/PageOrientation
350
E5
  3
PageSettings/PaperHeight
350
E6
  3
PageSettings/PaperWidth
350
E7
  3
PageSettings/Scale
350
E8
  3
PageSettings/ShowPaperBorders
350
E9
  3
PageTagSettings/EnablePageTags
350
EA
  3
PageTagSettings/TagAlignment
350
EB
  3
PageTagSettings/TagFont
350
EC
  3
PageTagSettings/TagPosition
350
ED
  3
UVCADVersion
350
EE
  3
UnitSettings/PaperUnit
350
EF
  0
XRECORD
  5
BE
330
BB
100
AcDbXrecord
280
1
1000
White
  0
XRECORD
  5
BF
330
BB
100
AcDbXrecord
280
1
1000
FullColor
  0
XRECORD
  5
C0
330
BB
100
AcDbXrecord
280
1
290
1
  0
XRECORD
  5
C1
330
BB
100
AcDbXrecord
280
1
290
1
  0
XRECORD
  5
C2
330
BB
100
AcDbXrecord
280
1
290
1
  0
XRECORD
  5
C3
330
BB
100
AcDbXrecord
280
1
290
1
  0
XRECORD
  5
C4
330
BB
100
AcDbXrecord
280
1
1000
auto
  0
XRECORD
  5
C5
330
BB
100
AcDbXrecord
280
1
1000
auto
  0
XRECORD
  5
C6
330
BB
100
AcDbXrecord
280
1
1000
auto
  0
XRECORD
  5
C7
330
BB
100
AcDbXrecord
280
1
1000
auto
  0
XRECORD
  5
C8
330
BB
100
AcDbXrecord
280
1
1000
auto
  0
XRECORD
  5
C9
330
BB
100
AcDbXrecord
280
1
1000
auto
  0
XRECORD
  5
CA
330
BB
100
AcDbXrecord
280
1
1000
auto
  0
XRECORD
  5
CB
330
BB
100
AcDbXrecord
280
1
1000
auto
  0
XRECORD
  5
CC
330
BB
100
AcDbXrecord
280
1
290
0
  0
XRECORD
  5
CD
330
BB
100
AcDbXrecord
280
1
290
0
  0
XRECORD
  5
CE
330
BB
100
AcDbXrecord
280
1
290
0
  0
XRECORD
  5
CF
330
BB
100
AcDbXrecord
280
1
290
0
  0
XRECORD
  5
D0
330
BB
100
AcDbXrecord
280
1
 90
65537
  0
XRECORD
  5
D1
330
BB
100
AcDbXrecord
280
1
 90
65537
  0
XRECORD
  5
D2
330
BB
100
AcDbXrecord
280
1
 90
65537
  0
XRECORD
  5
D3
330
BB
100
AcDbXrecord
280
1
 90
65537
  0
XRECORD
  5
D4
330
BB
100
AcDbXrecord
280
1
1000
auto
  0
XRECORD
  5
D5
330
BB
100
AcDbXrecord
280
1
1000
auto
  0
XRECORD
  5
D6
330
BB
100
AcDbXrecord
280
1
1000
auto
  0
XRECORD
  5
D7
330
BB
100
AcDbXrecord
280
1
1000
auto
  0
XRECORD
  5
D8
330
BB
100
AcDbXrecord
280
1
1000
auto
  0
XRECORD
  5
D9
330
BB
100
AcDbXrecord
280
1
1000
auto
  0
XRECORD
  5
DA
330
BB
100
AcDbXrecord
280
1
1000
auto
  0
XRECORD
  5
DB
330
BB
100
AcDbXrecord
280
1
1000
auto
  0
XRECORD
  5
DC
330
BB
100
AcDbXrecord
280
1
 90
1
  0
XRECORD
  5
DD
330
BB
100
AcDbXrecord
280
1
 40
0.0
  0
XRECORD
  5
DE
330
BB
100
AcDbXrecord
280
1
 40
0.0
  0
XRECORD
  5
DF
330
BB
100
AcDbXrecord
280
1
 40
0.0
  0
XRECORD
  5
E0
330
BB
100
AcDbXrecord
280
1
 40
0.0
  0
XRECORD
  5
E1
330
BB
100
AcDbXrecord
280
1
290
0
  0
XRECORD
  5
E2
330
BB
100
AcDbXrecord
280
1
 90
1
  0
XRECORD
  5
E3
330
BB
100
AcDbXrecord
280
1
 40
0.0
  0
XRECORD
  5
E4
330
BB
100
AcDbXrecord
280
1
 40
0.0
  0
XRECORD
  5
E5
330
BB
100
AcDbXrecord
280
1
1000
Portrait
  0
XRECORD
  5
E6
330
BB
100
AcDbXrecord
280
1
 40
297.0
  0
XRECORD
  5
E7
330
BB
100
AcDbXrecord
280
1
 40
210.0
  0
XRECORD
  5
E8
330
BB
100
AcDbXrecord
280
1
1000
1:1
  0
XRECORD
  5
E9
330
BB
100
AcDbXrecord
280
1
290
1
  0
XRECORD
  5
EA
330
BB
100
AcDbXrecord
280
1
290
0
  0
XRECORD
  5
EB
330
BB
100
AcDbXrecord
280
1
1000
Inside
  0
XRECORD
  5
EC
330
BB
100
AcDbXrecord
280
1
1000
Arial,10,-1,5,50,0,0,0,0,0
  0
XRECORD
  5
ED
330
BB
100
AcDbXrecord
280
1
1000
TopLeft
  0
XRECORD
  5
EE
330
BB
100
AcDbXrecord
280
1
1000
1.2
  0
XRECORD
  5
EF
330
BB
100
AcDbXrecord
280
1
 90
4
  0
ENDSEC
  0
EOF
