<svg width="252" height="88" viewBox="0 0 252 88" fill="none" xmlns="http://www.w3.org/2000/svg">
<mask id="mask0" mask-type="alpha" maskUnits="userSpaceOnUse" x="0" y="3" width="252" height="85">
<path fill-rule="evenodd" clip-rule="evenodd" d="M0.140137 3.59448H251.316V87.2967H0.140137V3.59448Z" fill="white"/>
</mask>
<g mask="url(#mask0)">
<path fill-rule="evenodd" clip-rule="evenodd" d="M41.9372 87.2106C57.3631 87.2106 61.242 80.956 61.242 72.388C61.242 61.8491 51.8098 59.8788 43.9646 58.5933C37.9704 57.5653 35.2378 57.0516 35.2378 53.3671C35.2378 50.6259 37.6177 49.597 41.4966 49.597C46.2566 49.597 47.5786 50.9681 48.0197 54.9948L60.5369 53.11C59.4785 44.4564 54.6304 40.0872 41.8489 40.0872C27.8336 40.0872 22.8972 45.7419 22.8972 54.7377C22.8093 66.3905 33.7396 67.59 41.8489 68.9606C46.873 69.9034 48.8131 70.7598 48.8131 74.1017C48.8131 76.8433 47.1384 78.0428 42.1134 78.0428C36.5602 78.0428 34.8854 77.1004 34.1803 72.5595L22.0159 74.3588C23.1617 83.5266 28.5387 87.2106 41.9372 87.2106Z" fill="#28234A"/>
<path fill-rule="evenodd" clip-rule="evenodd" d="M82.2855 77.7844C76.3791 77.7844 74.2641 76.4994 74.2641 72.2151C74.2641 68.3595 76.3791 66.8174 82.7262 66.8174H89.0729V71.2727C89.0729 75.5565 86.9575 77.7844 82.2855 77.7844ZM76.8199 87.2088C83.6956 87.2088 86.7811 84.9809 88.9848 81.7251V86.6091H101.413V55.5927C101.413 45.2259 97.4464 39.9993 83.6956 39.9993C70.385 39.9993 65.7135 43.7689 63.8621 53.0226L76.2031 54.9074C76.9961 50.9663 78.1424 49.7663 83.2549 49.7663C88.1913 49.7663 88.9848 51.8227 88.9848 55.2505V58.4208H83.1666C67.3882 58.4208 62.0107 63.2184 62.0107 72.9859C62.0107 82.5819 66.8593 87.2088 76.8199 87.2088Z" fill="#28234A"/>
<path fill-rule="evenodd" clip-rule="evenodd" d="M104.587 86.6095H117.281V20.5044L104.587 33.1406V86.6095Z" fill="#28234A"/>
<path fill-rule="evenodd" clip-rule="evenodd" d="M132.794 58.6771V56.3641C132.794 52.3374 134.646 49.5949 140.199 49.5949C145.576 49.5949 147.339 51.9088 147.339 56.3641V58.6771H132.794ZM140.199 87.2946C154.832 87.2946 158.711 80.4398 159.592 73.5855L147.516 71.7862C146.987 75.8989 146.193 78.0408 140.199 78.0408C134.117 78.0408 132.794 75.0421 132.794 71.1009V67.3313H159.592V59.1059C159.592 47.6247 155.096 39.9993 140.199 39.9993C125.479 39.9993 120.454 47.7107 120.454 57.4782V69.8159C120.454 79.3263 125.566 87.2946 140.199 87.2946Z" fill="#28234A"/>
<path fill-rule="evenodd" clip-rule="evenodd" d="M183.128 87.2948C197.672 87.2948 203.666 79.8407 203.666 69.8161V57.4784C203.666 47.2827 197.672 39.9993 183.128 39.9993C168.582 39.9993 162.765 47.2827 162.765 57.4784V69.8161C162.765 79.8407 168.495 87.2948 183.128 87.2948ZM183.128 77.3543C178.015 77.3543 175.459 74.6986 175.459 70.4144V57.2199C175.459 52.8505 178.015 50.1944 183.128 50.1944C188.24 50.1944 190.973 52.8505 190.973 57.2199V70.4144C190.973 74.6986 188.24 77.3543 183.128 77.3543Z" fill="#28234A"/>
<path fill-rule="evenodd" clip-rule="evenodd" d="M226.337 53.0745H219.534V86.3404H206.84V53.0745H206.84L219.241 40.439H238.739L226.337 53.0745Z" fill="#28234A"/>
</g>
<path fill-rule="evenodd" clip-rule="evenodd" d="M57.49 0.438965L40.7837 17.9173H82.0539L98.7603 0.438965H57.49Z" fill="#8AC4EB"/>
<path fill-rule="evenodd" clip-rule="evenodd" d="M22.9634 7.67114L7.31226 23.3414H61.5916L77.2428 7.67114H22.9634Z" stroke="#28234A" stroke-width="3.59766" stroke-linecap="round" stroke-linejoin="round"/>
</svg>
