<svg xmlns="http://www.w3.org/2000/svg" viewBox="0 0 102 33"><linearGradient id="a" gradientUnits="userSpaceOnUse" x1="-1" y1="16.355" x2="101.751" y2="16.355"><stop offset="0" stop-color="#ff4e00"/><stop offset="1" stop-color="#ff1791"/></linearGradient><path d="M95.8 31.7c1.4 1.4 3.6 1.4 4.9 0 1.4-1.4 1.4-3.6 0-4.9L74.9 1C73.5-.4 71.3-.4 70 1s-1.4 3.6 0 4.9l25.8 25.8z" opacity=".7" fill="url(#a)"/><linearGradient id="b" gradientUnits="userSpaceOnUse" x1=".25" y1="16.645" x2="101.751" y2="16.645"><stop offset="0" stop-color="#ff4e00"/><stop offset="1" stop-color="#ff1791"/></linearGradient><path d="M74.9 32c-1.4 1.4-3.6 1.4-4.9 0s-1.4-3.6 0-4.9L95.8 1.3c1.4-1.4 3.6-1.4 4.9 0s1.4 3.6 0 4.9L74.9 32z" fill="url(#b)"/><linearGradient id="c" gradientUnits="userSpaceOnUse" x1="212.862" y1="16.355" x2="316.906" y2="16.355" gradientTransform="matrix(-1 0 0 1 317 0)"><stop offset="0" stop-color="#ff4e00"/><stop offset="1" stop-color="#ff1791"/></linearGradient><path d="M51 25.8c4.4 0 8-3.6 8-8V3.6c0-2 1.5-3.6 3.5-3.6S66 1.6 66 3.6v14.1c0 8.3-6.7 15-15 15-1.9 0-3.5-1.6-3.5-3.5.1-1.9 1.6-3.4 3.5-3.4z" opacity=".7" fill="url(#c)"/><linearGradient id="d" gradientUnits="userSpaceOnUse" x1="-.794" y1="16.645" x2="103.251" y2="16.645"><stop offset="0" stop-color="#ff4e00"/><stop offset="1" stop-color="#ff1791"/></linearGradient><path d="M29.5.3c-2 0-3.5 1.6-3.5 3.6v25.5c0 2 1.5 3.6 3.5 3.6s3.5-1.6 3.5-3.6V3.9c0-2-1.5-3.6-3.5-3.6z" opacity=".7" fill="url(#d)"/><linearGradient id="e" gradientUnits="userSpaceOnUse" x1="-.083" y1="3.48" x2="101.835" y2="3.48"><stop offset="0" stop-color="#ff4e00"/><stop offset="1" stop-color="#ff1791"/></linearGradient><circle cx="62.5" cy="3.5" r="3.5" fill="url(#e)"/><linearGradient id="f" gradientUnits="userSpaceOnUse" x1="-2.084" y1="29.52" x2="101.96" y2="29.52"><stop offset="0" stop-color="#ff4e00"/><stop offset="1" stop-color="#ff1791"/></linearGradient><circle cx="98.5" cy="29.5" r="3.5" fill="url(#f)"/><linearGradient id="g" gradientUnits="userSpaceOnUse" x1="-1.044" y1="16.645" x2="103.001" y2="16.645"><stop offset="0" stop-color="#ff4e00"/><stop offset="1" stop-color="#ff1791"/></linearGradient><path d="M3.5.3C1.5.3 0 1.9 0 3.9v25.5c0 2 1.5 3.6 3.5 3.6S7 31.4 7 29.4V3.9C7 1.9 5.5.3 3.5.3z" fill="url(#g)"/><linearGradient id="h" gradientUnits="userSpaceOnUse" x1="-.95" y1="29.5" x2="103.701" y2="29.5"><stop offset="0" stop-color="#ff4e00"/><stop offset="1" stop-color="#ff1791"/></linearGradient><circle cx="29.5" cy="29.5" r="3.5" fill="url(#h)"/><linearGradient id="i" gradientUnits="userSpaceOnUse" x1=".5" y1="10" x2="102.802" y2="10"><stop offset="0" stop-color="#ff4e00"/><stop offset="1" stop-color="#ff1791"/></linearGradient><path d="M13.9 18.9c1.4 1.4 3.6 1.4 4.9 0s1.4-3.6 0-4.9L5.9 1.1C4.6-.3 2.4-.3 1 1.1S-.3 4.7 1 6l12.9 12.9z" opacity=".7" fill="url(#i)"/><linearGradient id="j" gradientUnits="userSpaceOnUse" x1=".25" y1="10" x2="100.505" y2="10"><stop offset="0" stop-color="#ff4e00"/><stop offset="1" stop-color="#ff1791"/></linearGradient><path d="M19 18.9c-1.4 1.4-3.6 1.4-4.9 0s-1.4-3.6 0-4.9L27 1.1c1.4-1.4 3.6-1.4 4.9 0 1.4 1.4 1.4 3.6 0 4.9L19 18.9z" fill="url(#j)"/><linearGradient id="k" gradientUnits="userSpaceOnUse" x1="-1.581" y1="16.355" x2="102.463" y2="16.355"><stop offset="0" stop-color="#ff4e00"/><stop offset="1" stop-color="#ff1791"/></linearGradient><path d="M51 25.8c-4.4 0-8-3.6-8-8V3.6c0-2-1.5-3.6-3.5-3.6S36 1.6 36 3.6v14.1c0 8.3 6.7 15 15 15 1.9 0 3.5-1.6 3.5-3.5-.1-1.9-1.6-3.4-3.5-3.4z" fill="url(#k)"/></svg>