<svg version="1.2" baseProfile="tiny" id="Layer_1" xmlns="http://www.w3.org/2000/svg" xmlns:xlink="http://www.w3.org/1999/xlink"
     x="0px" y="0px" width="995px" height="195px" viewBox="0 0 995 195" overflow="scroll" xml:space="preserve">
<g>
	<path fill="#2675BC" d="M328.638,98.492c0-15.852,0-31.701,0-48.542c0-3.962,0.99-4.953,4.953-4.953c4.953,0,9.906,0,14.86,0
		c2.973,0,3.962,0.991,3.962,3.962c0,10.896,0,21.794,0,32.69c0,2.973,0.991,4.954,3.962,4.954c10.896,0,21.795,0,32.691,0
		c2.971,0,3.963-0.99,3.963-3.963c0-10.897,0-20.803,0-31.7c0-3.963,0.988-5.943,4.952-4.953c4.952,0,9.907,0,13.868,0
		c2.973,0,3.963,0.99,3.963,3.962c0,32.69,0,64.393,0,97.08c0,3.964-0.991,4.953-4.952,3.964c-4.952,0-9.906,0-13.87,0
		c-3.961,0-3.961-0.989-3.961-4.952c0-11.89,0-23.776,0-35.662c0-3.964-0.992-4.955-4.954-4.955c-10.898,0-20.804,0-31.701,0
		c-3.962,0-4.952,0.991-4.952,4.955c0,11.886,0,22.783,0,34.674c0,3.959-0.991,5.94-4.955,4.951c-4.952,0-8.916,0-13.869,0
		c-3.961,0-4.952-0.992-4.952-4.951C328.638,131.182,328.638,115.332,328.638,98.492z"/>
    <path fill="#EFAB20" d="M952.735,193.591c-5.945,0-11.889,0-18.822,0c-2.974,0-3.964-0.988-3.964-3.963c0-4.953,0-9.905,0-14.856
		c0-2.975,0.99-4.952,3.964-4.952c6.934,0,13.869,0,20.804,0c2.971,0,3.961-0.993,4.952-3.964
		c8.915-29.718,10.896-59.439,8.915-90.148c-0.99-15.851-3.964-30.709-7.927-45.569c-0.988-2.972-1.979-4.953-5.94-4.953
		c-6.935,0-12.88-0.991-19.813-0.991c-2.973,0-4.954-0.991-3.964-4.953c0-4.953,0-9.906,0-13.869c0-2.972,0.991-3.962,3.964-3.962
		C947.782,2.4,960.657,2.4,972.546,3.391c2.973,0,2.973,1.98,3.964,3.962c6.933,17.832,10.896,35.663,13.867,54.485
		c4.954,39.626,1.981,79.253-9.905,117.885c-3.962,12.88-3.962,12.88-17.833,12.88C959.669,193.591,956.696,193.591,952.735,193.591
		L952.735,193.591z"/>
    <path fill="#EFAB20" d="M820.979,99.481c0.991-30.708,4.952-61.419,15.851-90.146c0.99-3.963,2.972-4.953,6.934-4.953
		c11.889,0,22.785-0.991,34.672-1.982c3.963,0,4.953,0.991,4.953,4.953c0,3.963,0,8.916,0,12.878s-0.99,4.953-4.953,4.953
		c-6.935,0-12.876,0.991-19.812,0.991c-2.972,0-3.961,0.99-3.961,2.972c-7.927,28.727-10.899,57.456-8.919,86.185
		c0.992,16.843,3.964,32.691,7.926,48.542c0.993,3.963,2.973,5.945,6.936,5.945c5.943,0,12.877,0,18.822,0
		c2.971,0,3.961,0.988,3.961,3.959c0,4.957,0,9.908,0,14.86c0,2.971-0.99,3.964-3.961,3.964c-12.879,0-24.765-0.993-37.645-0.993
		c-2.972,0-3.963-1.981-4.953-3.964c-7.924-18.819-11.887-38.633-13.869-58.445C821.971,120.284,821.971,109.387,820.979,99.481z"/>
    <path fill="#2675BC" d="M47.298,152.976c-18.821,0-33.681-6.934-43.587-22.785c-1.981-2.973-1.981-3.961,0.991-5.943l0.991-0.988
		c3.962-1.984,6.934-5.945,11.887-5.945c4.953-0.99,4.953,5.945,8.916,8.916c8.916,6.934,18.822,9.908,29.718,6.934
		c5.944-1.981,9.907-4.952,9.907-9.904c0-5.945-2.971-8.916-7.925-10.899c-5.942-2.973-11.887-3.962-17.831-5.943
		s-12.877-3.963-18.822-6.935C0.739,89.576,3.711,60.847,19.561,50.941c19.813-12.878,51.513-6.934,64.392,11.888
		c1.981,2.971,1.981,3.962-0.991,4.953c0,0.991-0.991,0.991-0.991,1.981c-2.972,2.971-5.944,5.944-9.906,6.935
		c-4.953,0.991-5.944-4.955-8.915-6.935c-7.925-4.954-15.851-7.925-25.757-4.954c-3.963,0.991-6.935,3.963-7.924,7.925
		c-0.991,4.955,1.98,7.926,5.943,10.897c5.944,2.972,11.888,4.953,17.833,6.935c6.934,1.981,13.868,3.962,19.812,6.935
		c21.793,10.896,18.822,39.626,1.981,49.529C66.12,151.983,56.213,152.976,47.298,152.976z"/>
    <path fill="#2675BC" d="M426.709,75.707c6.935,0,12.878,0,18.822,0c3.964,0,4.953,0.991,5.943,3.962
		c3.962,12.878,8.916,25.755,12.877,38.633c0.993,1.981,0.993,3.963,2.973,4.956c4.955-14.861,9.906-29.72,14.861-43.589
		c0.989-2.971,1.982-4.953,5.943-3.962c5.942,0,11.888,0,17.831,0c-4.954,13.869-9.907,26.746-14.858,39.625
		c-4.953,13.868-10.898,27.735-15.852,41.607c-6.934,18.821-15.85,24.765-36.651,22.783c-13.87-0.987-12.878-0.987-9.907-13.867
		c0.989-4.952,2.971-6.935,7.925-4.952c2.971,0.988,5.942,0.988,8.915,0.988c7.923,0,11.887-6.934,8.916-13.868
		c-7.927-21.794-16.842-43.589-24.768-65.383C428.691,80.66,427.701,78.679,426.709,75.707z"/>
    <path fill="#2675BC" d="M735.787,74.716c9.903,0,18.819,1.982,27.738,7.924c1.979,1.982,3.961,2.973,0.987,5.944
		c-1.979,2.973-3.961,6.934-6.933,8.916c-2.974,0.991-5.944-2.973-8.916-3.962c-5.942-1.981-10.896-3.963-16.841-2.972
		c-2.971,0.991-5.942,1.981-6.934,5.943c0,3.964,1.981,5.943,5.942,6.934c5.944,0.991,10.897,2.973,16.841,3.964
		c2.973,0.99,4.952,0.99,7.927,1.979c6.935,2.973,12.877,6.937,13.868,15.85c0.99,8.916-0.991,16.843-8.916,22.787
		c-9.906,6.935-20.801,6.935-32.691,5.945c-8.914-0.993-16.841-3.964-23.775-7.927c-2.971-1.98-3.963-2.975-0.988-5.944
		c1.98-2.971,3.962-6.935,5.941-7.923c2.973-0.993,5.945,2.971,8.916,3.963c6.936,2.969,13.869,4.953,21.797,3.96
		c3.959,0,7.922-1.981,7.922-6.935c0-4.952-2.97-6.934-6.934-7.927c-4.952-0.989-10.897-1.978-15.85-3.962
		c-2.973-0.99-4.954-0.99-7.925-1.979c-7.927-2.973-12.88-7.928-13.868-16.843c-0.993-9.905,2.971-16.84,10.896-21.793
		C721.917,74.716,728.853,73.726,735.787,74.716z"/>
    <path fill="#EFAB20" d="M907.166,87.595c2.971-7.925,5.943-15.851,8.915-22.785c0.989-2.972,2.971-3.962,5.944-3.962
		c5.942,0.991,12.878,0.991,19.812,0.991c-5.945,17.832-11.888,34.672-19.812,50.521c-1.982,3.964-1.982,5.943,0,9.906
		c3.96,6.935,7.924,14.861,11.888,22.788c-8.916,0-15.851,0-23.776,0c-1.981,0-2.971-0.992-3.962-2.975
		c-13.87-24.766-24.765-50.521-32.692-77.27c-0.988-2.972,0-3.962,2.974-3.962c4.954,0,10.896,0,15.849-0.991
		c2.973,0,3.964,0.991,4.954,3.962c2.974,7.925,5.944,15.851,7.926,23.776C906.175,87.595,906.175,87.595,907.166,87.595z"/>
    <path fill="#2675BC" d="M628.797,87.595c4.955-5.945,9.907-10.896,15.852-11.888c0.991,0,1.982-0.991,2.971-0.991
		c6.935-0.991,6.935-0.991,6.935,5.944c0,0.99,0,0.99,0,1.98c0,3.963,0.993,7.926-0.989,9.907c-1.981,2.971-5.945,0-8.916,0.991
		c-4.954,0.99-9.906,2.971-13.869,6.935c-1.982,1.979-2.971,3.961-2.971,6.934c0,12.877,0,25.756,0,38.635
		c0,3.963-0.993,4.952-3.964,4.952c-4.952,0-9.906,0-14.86,0c-2.971,0-3.961,0-3.961-2.971c0-22.787,0-46.56,0-69.345
		c0-2.972,0.99-2.972,2.972-2.972c4.952,0,9.905,0,14.858,0c2.973,0,4.955,0.991,3.962,3.962
		C628.797,82.641,628.797,84.623,628.797,87.595z"/>
    <path fill="#2775BC" d="M666.443,113.351c0-10.897,0-21.793,0-32.69c0-3.962,0.989-4.953,4.952-4.953c4.953,0,9.906,0,14.859,0
		c2.972,0,3.963,0.991,3.963,3.962c0,22.784,0,45.567,0,68.354c0,2.971-0.991,3.96-3.963,3.96c-4.953,0-9.906,0-14.859,0
		c-2.973,0-3.963-0.989-3.963-3.96C666.443,136.138,666.443,124.247,666.443,113.351z"/>
    <path fill="#2775BC" d="M678.33,46.978c10.896,0,10.896,0,10.896,11.887c0,6.935,0,6.935-6.936,6.935c-3.961,0-7.925,0-12.877,0
		c-2.971,0-3.964-0.991-3.964-3.962c0-0.991,0-1.981,0-2.973C666.443,46.978,666.443,46.978,678.33,46.978z"/>
    <path fill="#2675BC" d="M586.201,89.576c-7.926-16.841-29.721-19.813-42.598-6.935c-0.99,0.991-1.981,2.973-3.963,2.973
		c0-10.897,0-20.804,0-31.7c0-7.925,0-7.925-7.923-7.925c-4.954,0-10.897-1.981-13.87,0.99c-2.973,2.972-0.99,8.917-0.99,13.869
		c0,28.729,0,56.466,0,85.195c0,1.981-0.991,4.952,2.971,4.952c5.944,0,10.896,0,16.842,0c1.982,0,2.971-0.989,2.971-2.971
		s0-2.97,0-5.944c1.981,1.982,3.963,2.975,4.952,3.963c13.87,9.904,34.674,5.941,41.608-9.904
		C594.125,121.274,594.125,105.425,586.201,89.576z M566.39,126.229c-1.981,4.952-4.954,8.916-9.909,8.916
		c-6.934,0.992-11.888-1.982-16.84-5.945c-0.988-0.989-0.988-1.982-0.988-3.964c0-3.962,0-6.934,0-10.894c0-1.983,0-4.956,0-6.936
		c0-7.926,3.961-12.879,11.886-13.869c7.925-0.991,13.87,1.98,15.852,9.905C569.36,111.368,569.36,118.303,566.39,126.229z"/>
    <path fill="#2675BC" d="M253.35,46.978c-15.85-1.98-31.701,0-46.56-0.99c-3.961,0-4.952,0.99-4.952,4.953c0,15.85,0,31.7,0,47.551
		c0,15.851,0,31.698,0,48.538c0,3.964,0.991,4.953,4.952,4.953c4.953,0,8.916,0,13.869,0c3.963,0,4.954-0.989,4.954-4.953
		c0-9.903,0-18.819,0-28.728c0-3.96,0.991-4.952,4.953-4.952c8.916,0,16.841,0.992,25.756-0.991
		c10.898-1.979,19.813-6.935,24.766-16.84C290.994,73.726,278.114,49.95,253.35,46.978z M249.386,94.528
		c-7.924,1.981-15.85,0.991-22.783,0.991c-1.981,0-1.981-1.98-1.981-2.971c0-3.963,0-8.916,0-12.878s0-7.926,0-11.887
		c0-1.982,0-2.973,2.971-2.973c6.935,0,14.86-0.991,21.793,0.991c6.935,1.982,10.898,5.943,10.898,13.869
		C260.284,88.585,257.312,92.548,249.386,94.528z"/>
    <path fill="#2675BC" d="M187.968,145.054c-10.897-29.722-20.804-59.44-31.7-89.159c-3.964-9.906-3.964-9.906-14.86-9.906
		c-2.973,0-4.953,0-7.924,0c-1.982,0-3.963,0.99-4.953,2.972c-11.889,32.69-22.785,66.372-34.673,99.063
		c-0.991,2.971-0.991,3.96,2.973,3.96c4.953,0,8.916,0,13.869,0c2.972,0,3.962-0.989,4.952-3.96
		c1.981-4.956,3.963-10.896,4.954-15.849c0.99-2.975,2.971-3.964,5.943-3.964c7.925,0,15.851,0,23.775,0
		c5.944,0,8.916,0.989,9.906,6.935c0.991,4.952,1.981,11.885,5.944,15.849c3.962,2.975,10.896,0.989,16.84,0.989
		C189.949,151.983,189.949,151.983,187.968,145.054z M149.333,111.368c-5.943,0-11.889,0-17.832,0c-1.981,0-2.971-0.988-1.981-2.971
		c3.963-10.896,6.935-20.803,11.888-32.69c3.962,11.888,7.925,21.794,10.896,32.69C152.305,110.38,152.305,111.368,149.333,111.368z
		"/>
</g>
</svg>
