<svg id="Logos" xmlns="http://www.w3.org/2000/svg" xmlns:xlink="http://www.w3.org/1999/xlink" width="620.79" height="150" viewBox="0 0 620.79 150"><defs><style>.cls-1{fill:#505f79;}.cls-2{fill:#7a869a;}.cls-3{fill:url(#linear-gradient);}.cls-4{fill:url(#linear-gradient-2);}</style><linearGradient id="linear-gradient" x1="35.23" y1="49" x2="19.59" y2="64.64" gradientUnits="userSpaceOnUse"><stop offset="0.18" stop-color="#344563"/><stop offset="1" stop-color="#7a869a"/></linearGradient><linearGradient id="linear-gradient-2" x1="39.37" y1="93.93" x2="54.98" y2="78.32" xlink:href="#linear-gradient"/></defs><title>jira software-logo-gradient-neutral</title><path class="cls-1" d="M109.87,42.64h7.92V82.85c0,10.65-4.67,18-15.58,18a28.17,28.17,0,0,1-9.5-1.5V91.65a22.18,22.18,0,0,0,8.18,1.5c6.69,0,9-4.05,9-9.77Z"/><path class="cls-1" d="M132.22,39.56a4.94,4.94,0,0,1,5.28,5.28,5.28,5.28,0,0,1-10.56,0A4.94,4.94,0,0,1,132.22,39.56Zm-3.87,16.89h7.57v44h-7.57Z"/><path class="cls-1" d="M154.75,100.45h-7.39v-44h7.39V64.2c2.55-5.19,6.95-8.89,15.57-8.36v7.39c-9.68-1-15.57,1.94-15.57,11.26Z"/><path class="cls-1" d="M205.79,92.53c-2.82,5.81-8.1,8.8-14.87,8.8-11.71,0-17.6-9.94-17.6-22.88,0-12.4,6.15-22.88,18.48-22.88,6.42,0,11.35,2.91,14,8.63V56.45h7.56v44h-7.56Zm-12.85,1.76c6.78,0,12.85-4.31,12.85-14.08V76.69c0-9.76-5.55-14.08-12-14.08-8.54,0-12.94,5.64-12.94,15.84C180.88,89,185.11,94.29,192.94,94.29Z"/><path class="cls-1" d="M258.15,101.33c-11.18,0-16.37-2.2-20.86-4.48v-8.1c5.37,2.82,13.64,4.84,21.3,4.84,8.71,0,12-3.43,12-8.54s-3.16-7.83-14.16-10.47c-13-3.17-18.84-7.65-18.84-17.16,0-9,6.87-15.66,20.33-15.66,8.36,0,13.73,2,17.69,4.22V53.9a35.58,35.58,0,0,0-18-4.4c-7.57,0-12.06,2.64-12.06,7.92,0,4.75,3.7,7.13,13.91,9.68,12.23,3.08,19.09,7,19.09,17.43C278.47,94.56,272.49,101.33,258.15,101.33Z"/><path class="cls-1" d="M285.16,78.37c0-13.2,7.75-22.8,20.95-22.8s20.76,9.6,20.76,22.8-7.65,23-20.76,23S285.16,91.57,285.16,78.37Zm7.39,0c0,8.36,4.14,15.92,13.56,15.92s13.37-7.56,13.37-15.92-4.05-15.76-13.37-15.76S292.55,70,292.55,78.37Z"/><path class="cls-1" d="M346.14,56.45H357.5v7H346.14v37h-7.39v-37h-7.12v-7h7.12V51.61c0-8.18,4.58-13.72,14-13.72a18.3,18.3,0,0,1,5.11.7v6.95a25.28,25.28,0,0,0-4.75-.44c-4.67,0-7,2.73-7,6.69Z"/><path class="cls-1" d="M383.1,93.33a24.37,24.37,0,0,0,4.76-.62V100a17.88,17.88,0,0,1-5.11.71c-9.41,0-14-5.55-14-13.73V63.49h-7.13v-7h7.13V47.13h7.39v9.32h11.71v7H376.15V86.81C376.15,90.69,378.44,93.33,383.1,93.33Z"/><path class="cls-1" d="M439.07,100.45,431.5,79.16l-4-13.55-4,13.55-7.57,21.29h-9.68L390,56.45h8.36L411,93.77l12.85-37.32h7.21l12.85,37.32,12.67-37.32h8.36l-16.19,44Z"/><path class="cls-1" d="M499.53,92.53c-2.82,5.81-8.1,8.8-14.87,8.8-11.71,0-17.6-9.94-17.6-22.88,0-12.4,6.16-22.88,18.48-22.88,6.42,0,11.35,2.91,14,8.63V56.45h7.57v44h-7.57Zm-12.85,1.76c6.78,0,12.85-4.31,12.85-14.08V76.69c0-9.76-5.55-14.08-12-14.08-8.54,0-12.94,5.64-12.94,15.84C474.62,89,478.85,94.29,486.68,94.29Z"/><path class="cls-1" d="M525.93,100.45h-7.39v-44h7.39V64.2c2.55-5.19,7-8.89,15.57-8.36v7.39c-9.68-1-15.57,1.94-15.57,11.26Z"/><path class="cls-1" d="M568.17,101.33c-16.46,0-23.67-9.5-23.67-23,0-13.29,7.39-22.8,20.76-22.8,13.55,0,19,9.42,19,22.8V81.8H552.15c1.06,7.48,5.9,12.32,16.28,12.32a39,39,0,0,0,13.38-2.38v7C578.2,100.63,572.65,101.33,568.17,101.33Zm-16.11-26h24.55c-.44-8.19-4.13-12.85-11.7-12.85C556.9,62.44,552.85,67.63,552.06,75.29Z"/><path class="cls-2" d="M73,69.41l-32.6-32.6-3.16-3.16h0L12.69,58.19h0L1.47,69.41a3,3,0,0,0,0,4.24L23.89,96.07l13.34,13.34L61.77,84.87l.38-.38L73,73.65A3,3,0,0,0,73,69.41ZM37.23,82.74,26,71.53l11.2-11.2,11.2,11.2Z"/><path class="cls-3" d="M37.23,60.33a18.86,18.86,0,0,1-.08-26.59l-24.5,24.5L26,71.58,37.23,60.34Z"/><path class="cls-4" d="M48.46,71.5,37.23,82.74a18.85,18.85,0,0,1,0,26.67h0L61.8,84.84Z"/></svg>