<?xml version="1.0" encoding="UTF-8"?>
<svg width="142px" height="85px" viewBox="0 0 142 85" version="1.1" xmlns="http://www.w3.org/2000/svg" xmlns:xlink="http://www.w3.org/1999/xlink">
    <!-- Generator: Sketch 63.1 (92452) - https://sketch.com -->
    <title>Artboard</title>
    <desc>Created with Sketch.</desc>
    <g id="Artboard" stroke="none" stroke-width="1" fill="none" fill-rule="evenodd">
        <g id="typeform-logo-resting-1583756038" fill="#262627" fill-rule="nonzero">
            <g id="Group">
                <path d="M41.6085073,0.0515580944 C31.1784188,0.378080095 22.2695378,4.55108116 13.830592,12.5974072 L13.2614293,13.1445742 C4.06839535,22.0548541 -0.068433005,29.6790976 0.109375036,39.8830113 C0.299874914,50.758646 5.85403759,62.1988971 14.7169299,71.4377214 C23.4663327,80.5571035 32.8486574,85.000342 42.7243572,84.0558143 C48.9345845,83.4603638 53.6198088,80.498886 59.9947553,74.0699645 L60.7250949,73.325468 C61.9013412,72.1113264 64.8984431,68.9581069 65.3781074,68.4610524 L66.1112615,67.7057778 C66.5068495,67.3008787 66.8850211,66.9184091 67.2563584,66.5480337 C67.6505523,66.1548624 68.057486,65.7580483 68.4831572,65.351153 L69.0518933,64.8130714 C70.5164584,63.4462506 74.3201622,60.0154151 75.0623223,59.320277 L75.5525701,58.8569477 C81.3449429,53.3315558 83.8844406,49.021006 84.1168509,42.7580812 C84.4955929,32.5207808 78.2795878,19.9664646 69.2197649,10.8987685 C61.3270929,2.99899822 53.0327346,-0.234530306 41.952099,0.0418911026 L41.6085073,0.0515580944 Z M68.8705265,11.2509336 C77.8409159,20.2291185 83.9953156,32.6590117 83.6223718,42.7395896 C83.3925734,48.9321301 80.8492627,53.1695969 74.9717206,58.7244563 L74.6171208,59.0569534 C73.6129232,59.9867637 69.6470301,63.5643962 68.4666049,64.6822596 C67.9193447,65.2005155 67.4036429,65.7006327 66.9077303,66.1952588 L66.456398,66.6479499 C66.1524489,66.9544727 65.8414717,67.2713379 65.5180289,67.6038545 L64.7063082,68.4453288 C63.7506321,69.4453231 61.2653565,72.0573611 60.2960183,73.0555432 L60.1623678,73.1927633 C53.5934646,79.9124932 48.910487,82.9633052 42.6774032,83.5609472 C32.9698989,84.4893884 23.7264788,80.1119317 15.0732097,71.0927484 C6.29096463,61.9379921 0.792201818,50.6118516 0.604120414,39.8742876 C0.425545992,29.6263933 4.67066216,22.0185338 14.1712474,12.9579575 C22.5266999,4.99124021 31.3231549,0.870900545 41.6239187,0.548427153 C52.742841,0.200366321 60.9944766,3.36780037 68.8705265,11.2509336 Z" id="Path"></path>
                <g transform="translate(39.090905, 30.323724)">
                    <polygon id="Path" points="0.314604539 2.97078041 0.314604539 0.542396966 13.1393902 0.542396966 13.1393902 2.97078041 8.00561634 2.97078041 8.00561634 16.8888725 5.44837842 16.8888725 5.44837842 2.97078041"></polygon>
                    <polygon id="Path" points="26.8769733 5.11939022 24.0639126 5.11939022 20.0731766 13.7442526 16.3100584 5.11939022 13.5247078 5.11939022 18.6396784 16.8422435 16.4134762 21.6522821 19.2270317 21.6522821"></polygon>
                    <path d="M37.3875774,11.0038828 C37.3875774,9.81280669 37.1089928,8.8553724 36.5513289,8.15544121 C35.9931702,7.43115161 35.27271,7.0806889 34.3889586,7.0806889 C33.5057021,7.0806889 32.7852419,7.43115161 32.227578,8.15544121 C31.6694192,8.8553724 31.3908347,9.81280669 31.3908347,11.0038828 C31.3908347,12.1949589 31.6694192,13.1518961 32.227578,13.8761857 C32.7852419,14.576614 33.5057021,14.9270767 34.3889586,14.9270767 C35.27271,14.9270767 35.9931702,14.576614 36.5513289,13.8761857 C37.1089928,13.1518961 37.3875774,12.1949589 37.3875774,11.0038828 M34.668038,17.0755871 C33.2963926,17.0755871 32.1112949,16.42139 31.5303744,15.5812737 L31.5303744,21.6519838 L29.1126761,21.6519838 L29.1126761,5.11958907 L31.5303744,5.11958907 L31.5303744,6.47371732 C31.97225,5.70269936 33.2963926,4.93217851 34.715046,4.93217851 C38.131789,4.93217851 39.9448153,7.17364851 39.9448153,11.0038828 C39.9448153,14.7401632 38.1080376,17.0755871 34.668038,17.0755871 Z" id="Shape"></path>
                    <path d="M44.6519045,9.64970483 L50.3468061,9.64970483 C50.1374966,8.17825857 49.1612136,7.0811363 47.5109836,7.0811363 C45.9537801,7.0811363 44.9304891,8.13153021 44.6519045,9.64970483 L44.6519045,9.64970483 Z M52.9035492,11.6808972 L44.6048965,11.6808972 C44.6048965,13.5261704 45.6742059,14.927027 47.5109836,14.927027 C48.8123644,14.927027 49.9984517,14.1793732 50.5793723,12.9420658 L52.6477265,13.7593151 C51.4626288,16.0708776 50.0909834,17.0755374 47.5109836,17.0755374 C43.6523649,17.0755374 42.0481534,13.8060434 42.0481534,11.0038331 C42.0481534,8.20112564 43.6523649,4.9321288 47.5109836,4.9321288 C51.2533193,4.9321288 52.9035492,7.99134512 52.9035492,10.6305033 L52.9035492,11.6808972 Z" id="Shape"></path>
                    <path d="M54.8744731,7.26730408 L54.8744731,5.1192908 L56.3856582,5.1192908 L56.3856582,4.51231922 C56.3856582,1.73297595 57.8735867,0.355483521 60.3135519,0.355483521 C61.0805253,0.355483521 61.7089487,0.495171494 62.243356,0.775541661 L61.7544723,2.83059533 C61.3368429,2.6203177 60.8717106,2.5034968 60.3833217,2.5034968 C59.3377637,2.5034968 58.8028616,3.11096549 58.8028616,4.34876995 L58.8028616,5.1192908 L61.3828613,5.1192908 L61.3828613,7.26730408 L58.8028616,7.26730408 L58.8028616,16.8883754 L56.3856582,16.8883754 L56.3856582,7.26730408 L54.8744731,7.26730408 Z" id="Path"></path>
                    <path d="M65.5397584,11.0038828 C65.5397584,12.078138 65.818343,13.0122081 66.3760069,13.7827289 C66.9574222,14.5537469 67.7476523,14.9270767 68.7471919,14.9270767 C69.7467315,14.9270767 70.5374564,14.5537469 71.0951203,13.7827289 C71.6760408,13.0122081 71.9551202,12.078138 71.9551202,11.0038828 C71.9551202,9.9296276 71.6760408,9.01892167 71.0951203,8.24840082 C70.5374564,7.47738286 69.7467315,7.0806889 68.7471919,7.0806889 C67.7476523,7.0806889 66.9574222,7.47738286 66.3760069,8.24840082 C65.818343,9.01892167 65.5397584,9.9296276 65.5397584,11.0038828 M62.9825205,11.0038828 C62.9825205,9.29929183 63.4936712,7.85170686 64.539724,6.68399494 C65.5862716,5.51578592 67.0039355,4.93217851 68.7471919,4.93217851 C70.4909431,4.93217851 71.8853503,5.51578592 72.9314031,6.68399494 C73.977456,7.85170686 74.5118633,9.29929183 74.5118633,11.0038828 C74.5118633,12.7084738 73.977456,14.1565558 72.9314031,15.3242678 C71.8853503,16.4914826 70.4909431,17.0755871 68.7471919,17.0755871 C67.0039355,17.0755871 65.5862716,16.4914826 64.539724,15.3242678 C63.4936712,14.1565558 62.9825205,12.7084738 62.9825205,11.0038828 Z" id="Shape"></path>
                    <path d="M79.2256326,16.8886239 L76.8084292,16.8886239 L76.8084292,5.11953936 L79.2256326,5.11953936 L79.2256326,7.0811363 C79.9931009,5.70314676 81.3875081,4.9321288 82.6893836,4.9321288 C83.223791,4.9321288 83.711685,5.02608263 84.1768173,5.21249897 L83.7581983,7.4311019 C83.3865873,7.19746009 82.9219498,7.0811363 82.3870477,7.0811363 C81.5270478,7.0811363 80.7828361,7.5479228 80.1558972,8.50485998 C79.5279686,9.43893009 79.2256326,10.7701913 79.2256326,12.5215106 L79.2256326,16.8886239 Z" id="Path"></path>
                    <path d="M86.6628999,5.11939022 L89.0801033,5.11939022 L89.0801033,7.12771553 C90.0336245,5.65626927 91.1954655,4.93247678 92.6131294,4.93247678 C94.1940843,4.93247678 95.4959599,5.88991107 95.8448091,7.36086022 C96.657801,5.79645435 97.9829331,4.93247678 99.4941182,4.93247678 C101.608986,4.93247678 102.841091,6.33333339 102.841091,8.4584796 L102.841091,16.8884748 L100.423888,16.8884748 L100.423888,8.99585575 C100.423888,7.75805129 99.7494462,7.08098717 98.7033934,7.08098717 C97.1927031,7.08098717 95.9605974,9.06545118 95.9605974,12.1713959 L95.9605974,16.8884748 L93.5428991,16.8884748 L93.5428991,8.99585575 C93.5428991,7.75805129 92.8689521,7.08098717 91.8233941,7.08098717 C90.2656958,7.08098717 89.0801033,9.06545118 89.0801033,12.4284019 L89.0801033,16.8884748 L86.6628999,16.8884748 L86.6628999,5.11939022 Z" id="Path"></path>
                </g>
            </g>
        </g>
    </g>
</svg>