<svg height="32" viewBox="0 0 168 32" width="168" xmlns="http://www.w3.org/2000/svg"><g fill="none"><g fill="#515b5b" transform="translate(40.031771 7.733333)"><path d="m5.85264496.13066667c1.86814932 0 3.75764892.44933333 5.10805404 1.21466666v3.148c-1.32772045-.944-3.10513109-1.416-4.86119145-1.39466666-1.70935664.02266666-2.56470215.49466666-2.56470215 1.46133333 0 2.72133333 8.6188404 1.70933333 8.6188404 7.308 0 3.5306667-2.83558385 4.632-6.14354254 4.632-2.18306593 0-4.20867355-.5173333-5.8286259-1.416v-3.216c1.80009532 1.192 3.7803336 1.664 5.58042891 1.664 1.82277999 0 2.94767276-.3826667 2.94767276-1.5066667 0-2.9453333-8.61884035-1.844-8.61884035-7.41999997 0-3.03466666 2.65544083-4.47466666 5.76190628-4.47466666z"/><path d="m31.0112788.44533333v15.74133337h-3.3760127v-9.69200003l-4.1633042 6.31866663h-1.9575536l-4.1633042-6.3413333v9.7146667h-3.3760128v-15.74133337h3.1278158l5.4016203 8.18533334 5.3776013-8.18533334z"/><path d="m32.4657665 16.1866667 6.4357744-15.74000003h3.64556l6.4130897 15.74000003h-3.4881016l-1.1475775-2.9453334h-7.2017156l-1.1702621 2.9453334zm5.7152025-5.7346667h5.0853694l-2.2057506-5.644c-.112089-.31466667-.2255123-.62933333-.3376013-1.23733333-.112089.60666666-.2241779.92133333-.3602859 1.23733333z"/><path d="m50.4146783 16.1866667v-15.74133337h6.4811438c3.0597617 0 6.2556314 1.14666667 6.2556314 5.12666667 0 2.69866667-1.530548 4.06933333-3.4427323 4.6773333l4.7037331 5.936h-3.8924225l-4.2527085-5.5093333h-2.4779667v5.5093333h-3.3746783zm3.3746783-8.32000003h3.2625894c1.4171247 0 2.6554408-.62933334 2.6554408-2.22666667 0-1.61866667-1.2383161-2.22533333-2.6554408-2.22533333h-3.2625894z"/><path d="m77.5041779.44533333v3.036h-4.8385067v12.70533337h-3.3533281v-12.70533337h-4.8385067v-3.036z"/><path d="m82.4280858.44533333v12.70399997h7.5593328v3.036h-10.9353455v-15.73999997z"/><path d="m95.593201.44533333v15.74133337h-3.3760128v-15.74133337z"/><path d="m98.3473868 16.1866667v-15.74133337h3.1731852l7.336489 10.27599997c-.045369-.652-.068054-1.43866663-.068054-2.15866663v-8.11733334h3.376013v15.74133337h-3.173185l-7.336489-10.27600003c.045369.652.068054 1.43866666.068054 2.15866666v8.11733337z"/><path d="m122.702716.13066667c1.688007 0 3.376013.36 4.838507 1.012v3.216c-1.192947-.78666667-2.790214-1.21466667-4.388816-1.21466667-2.812899 0-5.580429 1.484-5.580429 5.172 0 4.1826667 3.083781 5.2386667 5.40162 5.2386667.675203 0 1.259666-.112 1.732041-.292v-5.62133337h3.218555v7.80266667c-1.575918.6746667-3.376013 1.0573333-5.130739 1.0573333-4.411501 0-8.66421-2.4053333-8.66421-8.1853333 0-5.71066667 4.252709-8.18533333 8.573471-8.18533333z"/></g><g fill="#f26c5d"><circle cx="13.194007" cy="18.952976" r="1.588616" transform="matrix(.70710678 -.70710678 .70710678 .70710678 -9.537343 14.88077)"/><path d="m29.1844956 27.7813333c-.1521207 0-.3055758-.0346666-.4510246-.1066666-.5003971-.2493334-.7045592-.856-.4550278-1.3573334 3.2092137-6.4426666 1.9402065-14.192-3.155838-19.28399997-5.1147259-5.11066666-12.8915647-6.368-19.35135818-3.12666666-.50039714.25066666-1.10888006.04933333-1.35974583-.45066667s-.04937252-1.108.45102462-1.35866667c7.24041299-3.632 15.95799839-2.224 21.69188249 3.50533334 5.7125337 5.70800003 7.1336616 14.39600003 3.5361398 21.61733333-.1761398.356-.533757.5613333-.9060525.5613333z"/><path d="m13.1971406 24.7253333c-3.19720414 0-5.79926927-2.6-5.79926927-5.7946666 0-3.1946667 2.60206513-5.7946667 5.79926927-5.7946667 3.1972041 0 5.7992692 2.6 5.7992692 5.7946667 0 3.1946666-2.6020651 5.7946666-5.7992692 5.7946666zm0-9.564c-2.0803177 0-3.77366165 1.6906667-3.77366165 3.7706667s1.69200955 3.7706667 3.77366165 3.7706667 3.7736616-1.6906667 3.7736616-3.7706667-1.6933439-3.7706667-3.7736616-3.7706667z"/><path d="m13.1971406 29.0773333c-1.0341541 0-2.0536299-.1546666-3.0304051-.46-.53909452-.168-.8393328-.7413333-.67119936-1.28.16813344-.5386666.74192216-.84 1.28101666-.6706666.7792852.244 1.5945989.3666666 2.4205878.3666666 4.4702144 0 8.1077681-3.6346666 8.1077681-8.1013333s-3.6375537-8.1013333-8.1077681-8.1013333c-4.47021447 0-8.10776808 3.6346666-8.10776808 8.1013333 0 .8266667.12409849 1.6426667.36829229 2.4226667.16813344.5386666-.13210484 1.112-.67119936 1.2813333-.53909452.168-1.11288324-.132-1.28235107-.6706667-.30691025-.9786666-.46169977-1.9986666-.46169977-3.0333333 0-5.5946667 4.55561557-10.14666667 10.15472599-10.14666667 5.5991104 0 10.1533916 4.55199997 10.1533916 10.14666667s-4.5556156 10.1453333-10.1533916 10.1453333z"/><path d="m19.3767117 31.9986667c-.3709611 0-.7299127-.2026667-.91139-.556-.2575377-.5026667-.0600477-1.1186667.4430183-1.376 4.1993328-2.156 6.8080698-6.4226667 6.8080698-11.136 0-6.8986667-5.6164575-12.5106667-12.5206036-12.5106667-4.73175537 0-9.00714854 2.61866667-11.15952344 6.8333333-.25753772.5026667-.87269261.7026667-1.37575853.4453334-.50306593-.256-.70322479-.872-.44568706-1.3746667 2.5033201-4.90266667 7.47793487-7.948 12.98230343-7.948 8.0317077 0 14.5662272 6.5293333 14.5662272 14.5546667 0 5.4826666-3.0344083 10.4466666-7.9196188 12.9546666-.1494519.0773334-.309579.1133334-.4670373.1133334z"/></g></g></svg>