<svg fill="none" height="30" viewBox="0 0 30 30" width="30" xmlns="http://www.w3.org/2000/svg"><path d="m15.4023 29.3381c3.943.0341 7.3207-1.6903 9.8416-4.4405 2.5187-2.748 3.7377-6.4084 3.7559-10.2948.0181-3.9069-1.1622-7.00474-3.7055-9.5293-2.5187-2.50009-6.0245-4.083903-9.8967-4.07345-3.8716.01046-7.15563 1.601-9.83284 4.12475-2.70258 2.54887-4.49417 5.7363-4.56259 9.5992-.068423 3.8258 1.48693 7.2503 4.14764 9.9714 2.68391 2.7446 6.29359 4.6086 10.25249 4.6427z" stroke="#262627"/><path d="m11.1929 12.0964v-1.5789h8.3768v1.5789h-3.3532v9.0495h-1.6704v-9.0495z" fill="#262627"/></svg>
