<svg height="30" viewBox="0 0 30 30" width="30" xmlns="http://www.w3.org/2000/svg"><g fill="none" transform="translate(2 2)"><path d="m13.6778867.18164829c-3.6018939.07803162-6.51467331 1.21113602-9.19968698 3.61704231-2.83336363 2.53885025-4.25378055 5.22612524-4.42888367 8.6070734-.18161915 3.5065431.90957126 6.2655416 3.52598556 8.9097659 2.69696421 2.7256307 5.88623633 4.202162 9.57579889 4.342977 3.6402138.138935 6.5597904-1.0284354 9.4039964-3.620978 2.9255186-2.6666593 4.2325352-5.2635142 4.1756937-8.7682773-.0576002-3.55166003-1.7192577-7.08734832-4.4692516-9.84571259-2.444083-2.45152356-4.7419959-3.29792236-8.41323-3.24497066z" fill="#262627"/><path d="m.18659169 1.46488451v-1.43806612h7.60636956v1.43806612h-3.04483695v8.24216486h-1.51669566v-8.24216486z" fill="#fff" transform="translate(9.244565 8.537138)"/></g></svg>