<svg width="35" height="32" viewBox="0 0 35 32" fill="none" xmlns="http://www.w3.org/2000/svg">
<path fill-rule="evenodd" clip-rule="evenodd" d="M13.8211 32C19.5332 32 20.9695 29.6934 20.9695 26.5336C20.9695 22.6471 17.4768 21.9204 14.5718 21.4463C12.3522 21.0673 11.3403 20.8778 11.3403 19.519C11.3403 18.5081 12.2216 18.1287 13.6579 18.1287C15.4205 18.1287 15.91 18.6343 16.0734 20.1193L20.7084 19.4242C20.3165 16.2329 18.5213 14.6216 13.7884 14.6216C8.5986 14.6216 6.77068 16.707 6.77068 20.0245C6.73814 24.3218 10.7856 24.7642 13.7884 25.2696C15.6488 25.6173 16.3672 25.9332 16.3672 27.1656C16.3672 28.1767 15.747 28.619 13.8863 28.619C11.83 28.619 11.2098 28.2715 10.9487 26.5969L6.44434 27.2604C6.86862 30.6413 8.8597 32 13.8211 32Z" fill="#28234A"/>
<path fill-rule="evenodd" clip-rule="evenodd" d="M19.5798 0L13.3936 6.44572H28.6756L34.8619 0H19.5798Z" fill="#8AC4EB"/>
<path fill-rule="evenodd" clip-rule="evenodd" d="M6.36519 2.23589C6.47937 2.12204 6.63403 2.05811 6.79527 2.05811H26.8945C27.1411 2.05811 27.3633 2.2067 27.4574 2.43452C27.5516 2.66234 27.4992 2.92446 27.3246 3.09852L21.5291 8.87745C21.4149 8.9913 21.2603 9.05523 21.099 9.05523H0.999744C0.753227 9.05523 0.531016 8.90664 0.436841 8.67882C0.342666 8.451 0.395099 8.18888 0.569663 8.01481L6.36519 2.23589ZM7.04706 3.27631L2.47323 7.83703H20.8472L25.4211 3.27631H7.04706Z" fill="#28234A"/>
</svg>
